<?xml version="1.0" encoding="utf-8"?>
<!-- Generator: Adobe Illustrator 27.0.1, SVG Export Plug-In . SVG Version: 6.00 Build 0)  -->
<svg version="1.1" id="Capa_1" xmlns="http://www.w3.org/2000/svg" xmlns:xlink="http://www.w3.org/1999/xlink" x="0px" y="0px"
	 width="307.7px" height="128.7px" viewBox="0 0 307.7 128.7" style="enable-background:new 0 0 307.7 128.7;" xml:space="preserve"
	>
<style type="text/css">
	.st0{fill:#FFFFFF;}
	.st1{enable-background:new    ;}
</style>
<g>
	<path d="M35.9,17.2c0,31.1,0,62.2,0,93.7c1.9,0,3.5,0,5,0c75.7,0,151.5,0,227.2,0c1.7,0,3.5,0.1,5.1,0.1c0-31.2,0-62.6,0-93.8
		C194.2,17.2,115.1,17.2,35.9,17.2z M127.4,107.8c-29.5,0-58.9,0-88.7,0c0-29.2,0-58.5,0-88c29.4,0,58.8,0,88.7,0
		C127.4,49.2,127.4,78.3,127.4,107.8z M270.8,107.8c-46.4,0-92.7,0-139.1,0c0-14,0-27.7,0-41.8c46.3,0,92.6,0,139.1,0
		C270.8,80,270.8,93.8,270.8,107.8z"/>
	<path d="M47.5,28.2c4.9,0,9.7-0.2,14.5,0.2c1.4,0.1,2.8,1.7,3.8,3c13.7,17.3,27.1,34.5,40.7,51.8c0.6,0.7,1.2,1.4,2.3,2.7
		c0-15.7,0-30.8,0-46.7c-5.9,0-12-0.2-18.1,0.1c-2.9,0.1-4.7-0.8-6.3-3.1c-1.8-2.6-3.8-4.9-6-7.8c14.2,0,27.9,0,41.8,0
		c0,23.5,0,47.1,0,71.1c-5,0-9.8,0.2-14.7-0.1c-1.1-0.1-2.4-1.4-3.2-2.4C89.1,80.2,76,63.4,62.8,46.7c-1.1-1.4-2.2-2.8-3.9-5
		c0,16,0,31.2,0,46.8c5.8,0,11.6,0.2,17.3-0.1c3.5-0.2,5.8,1,7.5,3.7c1.5,2.2,3.3,4.3,5.3,7c-14.1,0-27.8,0-41.7,0
		C47.5,75.6,47.5,52.1,47.5,28.2z"/>
	<path class="st0" d="M169.8,48.8v-4.8h8.8v-4.4h-8.8v-4.9h10.9l1.5-4.4h-17.3v23h17.7l-1.5-4.4H169.8z M147.9,30.2l-8.9,23h5.3
		l6.8-18.6l3.5,9.6h-3.9l-1.5,4.4h7.1l1.7,4.6h5.3l-8.9-23L147.9,30.2L147.9,30.2z M223.3,29.3c-7.3,0-12.5,5.1-12.5,12.4
		s5.2,12.4,12.5,12.4s12.5-5.1,12.5-12.4S230.6,29.3,223.3,29.3 M223.3,49.3c-4.1,0-7.1-3.1-7.1-7.6s3-7.6,7.1-7.6
		c4.1,0,7.1,3.1,7.1,7.6C230.5,46.2,227.5,49.3,223.3,49.3 M258.4,38.3c0-5.1-3.5-8-9.2-8h-10.3v23h5V34.6h5.4c2.5,0,4,1.4,4,3.7
		s-1.4,3.7-3.9,3.7h-2.9l6.3,11.2h5.4l-4.8-8C256.9,44.3,258.4,41.5,258.4,38.3 M199.8,34.6h3.1v11.2l-11.6-15.6h-5.2v23h11.2
		l-3.2-4.4h-3V37.7l11.5,15.5h5.3v-23h-11.2L199.8,34.6z"/>
	<g class="st1">
		<path d="M146.2,91.2l-0.9-2.7h-3.1l-0.9,2.7h-1.9l3-9.9h2.8l3,9.9H146.2z M144.2,84.3c-0.2-0.5-0.2-1-0.3-1.5h-0.2
			c-0.1,0.6-0.2,1-0.3,1.5l-0.8,2.7h2.5L144.2,84.3z"/>
		<path d="M153,91.5c-2.6,0-4.2-1-4.2-4.5v-1.3c0-3.5,1.7-4.5,4.2-4.5c0.9,0,2,0.2,2.5,0.2v1.4c-0.6-0.1-1.6-0.1-2.3-0.1
			c-1.7,0-2.5,0.6-2.5,2.9V87c0,2.2,0.8,2.9,2.5,2.9c0.8,0,1.7-0.1,2.3-0.1v1.5C155,91.3,153.9,91.5,153,91.5z"/>
		<path d="M160.5,91.5c-2.6,0-4.2-1-4.2-4.5v-1.3c0-3.5,1.7-4.5,4.2-4.5c0.9,0,2,0.2,2.5,0.2v1.4c-0.6-0.1-1.6-0.1-2.3-0.1
			c-1.7,0-2.5,0.6-2.5,2.9V87c0,2.2,0.8,2.9,2.5,2.9c0.8,0,1.7-0.1,2.3-0.1v1.5C162.5,91.3,161.3,91.5,160.5,91.5z"/>
		<path d="M164.5,91.2v-9.9h6.3v1.5h-4.4v2.5h4.2v1.5h-4.2v2.8h4.4v1.5H164.5z"/>
		<path d="M175.4,91.5c-1.3,0-2.7-0.2-3.1-0.3v-1.4c0.8,0.1,1.7,0.2,3,0.2c1.2,0,1.8-0.3,1.8-1.2c0-0.6-0.2-1-1.2-1.4l-1.5-0.6
			c-1.4-0.6-2.2-1.4-2.2-2.9c0-1.9,1.2-2.6,3.5-2.6c1.3,0,2.4,0.2,2.9,0.3v1.4c-0.7-0.1-1.8-0.2-2.8-0.2c-1.1,0-1.8,0.2-1.8,1
			c0,0.6,0.2,0.9,1.3,1.3l1.4,0.6c1.7,0.7,2.4,1.4,2.4,3.1C178.9,90.4,177.6,91.5,175.4,91.5z"/>
		<path d="M180.6,91.2v-9.9h1.8v9.9H180.6z"/>
		<path d="M187.4,91.3c-1.1,0-1.6,0-2.9-0.1v-9.9c1.3-0.1,1.8-0.1,2.9-0.1c2.7,0,4.3,0.5,4.3,2.7v0.2c0,0.9-0.4,1.7-1.3,2.1
			c1,0.4,1.3,1.2,1.3,2.1v0.2C191.9,90.8,190,91.3,187.4,91.3z M189.9,84.1c0-1.1-0.9-1.2-2.5-1.2h-1.1v2.7h1.7
			C189.5,85.5,189.9,85.1,189.9,84.1L189.9,84.1z M190,88.3c0-0.9-0.4-1.4-1.9-1.4h-1.7v3h0.5C188.9,89.8,190,89.8,190,88.3
			L190,88.3z"/>
		<path d="M193.5,91.2v-9.9h1.8v9.9H193.5z"/>
		<path d="M197.5,91.2v-9.9h1.8v8.4h4.2v1.6L197.5,91.2L197.5,91.2z"/>
		<path d="M204.9,91.2v-9.9h1.8v9.9H204.9z"/>
		<path d="M211.9,91.3c-1.2,0-1.8,0-3.1-0.1v-9.9c1.2-0.1,1.8-0.1,3.1-0.1c3.2,0,4.6,1.5,4.6,4.3v1.3
			C216.5,89.9,215.2,91.3,211.9,91.3z M214.7,85.7c0-2.2-0.9-2.8-2.7-2.8h-1.2v6.9h1.2c1.9,0,2.7-0.7,2.7-2.8V85.7z"/>
		<path d="M224,91.2l-0.9-2.7H220l-0.9,2.7h-1.9l3-9.9h2.8l3,9.9H224z M221.9,84.3c-0.2-0.5-0.2-1-0.3-1.5h-0.1
			c-0.1,0.6-0.2,1-0.3,1.5l-0.8,2.7h2.5L221.9,84.3z"/>
		<path d="M230.3,91.3c-1.2,0-1.8,0-3.1-0.1v-9.9c1.2-0.1,1.8-0.1,3.1-0.1c3.2,0,4.6,1.5,4.6,4.3v1.3
			C234.9,89.9,233.6,91.3,230.3,91.3z M233.1,85.7c0-2.2-0.9-2.8-2.7-2.8h-1.2v6.9h1.2c1.9,0,2.7-0.7,2.7-2.8V85.7z"/>
		<path d="M243.3,83v8.4h-1.8V83h-3v-1.5h7.8V83H243.3z"/>
		<path d="M247.7,91.2v-9.9h1.8v9.9H247.7z"/>
		<path d="M255.5,91.5c-2.6,0-4.2-1-4.2-4.5v-1.3c0-3.5,1.7-4.5,4.2-4.5c0.9,0,2,0.2,2.5,0.2v1.4c-0.6-0.1-1.6-0.1-2.3-0.1
			c-1.7,0-2.5,0.6-2.5,2.9V87c0,2.2,0.8,2.9,2.5,2.9c0.8,0,1.7-0.1,2.3-0.1v1.5C257.5,91.3,256.3,91.5,255.5,91.5z"/>
	</g>
</g>
</svg>
