<?xml version="1.0" encoding="utf-8"?>
<!-- Generator: Adobe Illustrator 26.0.1, SVG Export Plug-In . SVG Version: 6.00 Build 0)  -->
<svg version="1.1" id="Capa_1" xmlns="http://www.w3.org/2000/svg" xmlns:xlink="http://www.w3.org/1999/xlink" x="0px" y="0px"
	 viewBox="0 0 100 100" style="enable-background:new 0 0 100 100;" xml:space="preserve">
<g>
	<path d="M84.8,19.6c4.7,0,8.4,3.8,8.4,8.4v36.8c0,4.7-3.8,8.4-8.4,8.4H15.5c-4.7,0-8.4-3.8-8.4-8.4V28.1c0-4.7,3.8-8.4,8.4-8.4
		H84.8 M84.8,18.8H15.5c-5.1,0-9.2,4.2-9.2,9.2v36.8c0,5.1,4.2,9.2,9.2,9.2h69.3c5.1,0,9.2-4.2,9.2-9.2V28.1
		C94,23,89.8,18.8,84.8,18.8L84.8,18.8z"/>
</g>
<g>
	<path d="M21.5,63.1l0.5,0.1c-0.1,0.3-0.2,0.6-0.4,0.8c-0.2,0.2-0.5,0.3-0.8,0.3c-0.4,0-0.7-0.1-1-0.4c-0.2-0.3-0.4-0.6-0.4-1.1
		c0-0.3,0.1-0.6,0.2-0.8s0.3-0.4,0.5-0.5s0.4-0.2,0.7-0.2c0.3,0,0.6,0.1,0.8,0.2s0.3,0.4,0.4,0.7l-0.5,0.1c0-0.2-0.1-0.3-0.2-0.4
		c-0.1-0.1-0.3-0.1-0.4-0.1c-0.2,0-0.5,0.1-0.6,0.3c-0.2,0.2-0.2,0.5-0.2,0.8c0,0.4,0.1,0.7,0.2,0.9c0.1,0.2,0.3,0.3,0.6,0.3
		c0.2,0,0.4-0.1,0.5-0.2C21.3,63.5,21.4,63.4,21.5,63.1z"/>
	<path d="M24.4,63.2l0.5,0.1c-0.1,0.3-0.2,0.5-0.4,0.7c-0.2,0.2-0.5,0.2-0.8,0.2c-0.4,0-0.8-0.1-1-0.4s-0.4-0.6-0.4-1.1
		c0-0.5,0.1-0.9,0.4-1.1c0.3-0.3,0.6-0.4,1-0.4c0.4,0,0.7,0.1,1,0.4c0.2,0.3,0.4,0.6,0.4,1.1c0,0,0,0.1,0,0.1h-2.2
		c0,0.3,0.1,0.6,0.3,0.7c0.2,0.2,0.4,0.3,0.6,0.3c0.2,0,0.3,0,0.5-0.1C24.2,63.6,24.3,63.5,24.4,63.2z M22.7,62.4h1.6
		c0-0.2-0.1-0.4-0.2-0.6c-0.2-0.2-0.4-0.3-0.6-0.3c-0.2,0-0.4,0.1-0.6,0.2C22.8,62,22.8,62.2,22.7,62.4z"/>
	<path d="M25.5,64.2v-2.9h0.4v0.4c0.1-0.2,0.2-0.3,0.3-0.4c0.1-0.1,0.2-0.1,0.3-0.1c0.2,0,0.3,0.1,0.5,0.2l-0.2,0.5
		c-0.1-0.1-0.2-0.1-0.4-0.1c-0.1,0-0.2,0-0.3,0.1c-0.1,0.1-0.1,0.2-0.2,0.3C26,62.3,26,62.4,26,62.7v1.5H25.5z"/>
	<path d="M28.4,63.7l0.1,0.4c-0.1,0-0.3,0-0.4,0c-0.2,0-0.3,0-0.4-0.1c-0.1-0.1-0.2-0.1-0.2-0.2c0-0.1-0.1-0.3-0.1-0.6v-1.7h-0.4
		v-0.4h0.4v-0.7l0.5-0.3v1h0.5v0.4h-0.5v1.7c0,0.1,0,0.2,0,0.3c0,0,0,0.1,0.1,0.1c0,0,0.1,0,0.2,0C28.3,63.8,28.4,63.8,28.4,63.7z"
		/>
	<path d="M28.9,60.7v-0.6h0.5v0.6H28.9z M28.9,64.2v-2.9h0.5v2.9H28.9z"/>
	<path d="M30.3,64.2v-2.5h-0.4v-0.4h0.4V61c0-0.2,0-0.3,0.1-0.4c0-0.1,0.1-0.2,0.3-0.3c0.1-0.1,0.3-0.1,0.5-0.1c0.1,0,0.3,0,0.5,0
		l-0.1,0.4c-0.1,0-0.2,0-0.3,0c-0.2,0-0.3,0-0.3,0.1c-0.1,0.1-0.1,0.2-0.1,0.4v0.3h0.6v0.4h-0.6v2.5H30.3z"/>
	<path d="M31.7,60.7v-0.6h0.5v0.6H31.7z M31.7,64.2v-2.9h0.5v2.9H31.7z"/>
	<path d="M34.9,63.1l0.5,0.1c-0.1,0.3-0.2,0.6-0.4,0.8c-0.2,0.2-0.5,0.3-0.8,0.3c-0.4,0-0.7-0.1-1-0.4c-0.2-0.3-0.4-0.6-0.4-1.1
		c0-0.3,0.1-0.6,0.2-0.8s0.3-0.4,0.5-0.5s0.4-0.2,0.7-0.2c0.3,0,0.6,0.1,0.8,0.2s0.3,0.4,0.4,0.7l-0.5,0.1c0-0.2-0.1-0.3-0.2-0.4
		c-0.1-0.1-0.3-0.1-0.4-0.1c-0.2,0-0.5,0.1-0.6,0.3c-0.2,0.2-0.2,0.5-0.2,0.8c0,0.4,0.1,0.7,0.2,0.9c0.1,0.2,0.3,0.3,0.6,0.3
		c0.2,0,0.4-0.1,0.5-0.2C34.8,63.5,34.9,63.4,34.9,63.1z"/>
	<path d="M37.7,63.8c-0.2,0.2-0.4,0.3-0.5,0.3s-0.4,0.1-0.5,0.1c-0.3,0-0.6-0.1-0.7-0.2c-0.2-0.2-0.3-0.4-0.3-0.6
		c0-0.1,0-0.3,0.1-0.4s0.2-0.2,0.3-0.3c0.1-0.1,0.2-0.1,0.4-0.2c0.1,0,0.2,0,0.4-0.1c0.4,0,0.7-0.1,0.9-0.2c0-0.1,0-0.1,0-0.1
		c0-0.2,0-0.3-0.1-0.4c-0.1-0.1-0.3-0.2-0.6-0.2c-0.2,0-0.4,0-0.5,0.1s-0.2,0.2-0.2,0.4l-0.5-0.1c0-0.2,0.1-0.4,0.2-0.5
		c0.1-0.1,0.2-0.2,0.4-0.3s0.4-0.1,0.7-0.1c0.2,0,0.5,0,0.6,0.1s0.3,0.1,0.3,0.2s0.1,0.2,0.2,0.3c0,0.1,0,0.2,0,0.5V63
		c0,0.5,0,0.8,0,0.9c0,0.1,0.1,0.2,0.1,0.4h-0.5C37.8,64.1,37.7,64,37.7,63.8z M37.7,62.7c-0.2,0.1-0.4,0.1-0.8,0.2
		c-0.2,0-0.3,0.1-0.4,0.1c-0.1,0-0.1,0.1-0.2,0.2c0,0.1-0.1,0.1-0.1,0.2c0,0.1,0,0.2,0.1,0.3c0.1,0.1,0.2,0.1,0.4,0.1
		c0.2,0,0.4,0,0.5-0.1c0.1-0.1,0.3-0.2,0.3-0.3c0.1-0.1,0.1-0.3,0.1-0.5V62.7z"/>
	<path d="M40.8,64.2v-0.4c-0.2,0.3-0.5,0.4-0.8,0.4c-0.2,0-0.4-0.1-0.6-0.2c-0.2-0.1-0.3-0.3-0.5-0.5c-0.1-0.2-0.2-0.5-0.2-0.8
		c0-0.3,0-0.6,0.1-0.8s0.2-0.4,0.4-0.5c0.2-0.1,0.4-0.2,0.7-0.2c0.2,0,0.3,0,0.5,0.1c0.1,0.1,0.2,0.2,0.3,0.3v-1.4h0.5v4H40.8z
		 M39.3,62.7c0,0.4,0.1,0.7,0.2,0.8c0.2,0.2,0.3,0.3,0.6,0.3c0.2,0,0.4-0.1,0.6-0.3c0.2-0.2,0.2-0.4,0.2-0.8c0-0.4-0.1-0.7-0.2-0.9
		c-0.2-0.2-0.3-0.3-0.6-0.3c-0.2,0-0.4,0.1-0.6,0.3C39.3,62.1,39.3,62.3,39.3,62.7z"/>
	<path d="M41.9,62.7c0-0.5,0.1-0.9,0.5-1.2c0.3-0.2,0.6-0.3,0.9-0.3c0.4,0,0.7,0.1,1,0.4c0.3,0.3,0.4,0.6,0.4,1.1
		c0,0.4-0.1,0.7-0.2,0.9c-0.1,0.2-0.3,0.4-0.5,0.5s-0.5,0.2-0.7,0.2c-0.4,0-0.7-0.1-1-0.4C42,63.6,41.9,63.2,41.9,62.7z M42.4,62.7
		c0,0.4,0.1,0.7,0.2,0.8c0.2,0.2,0.4,0.3,0.6,0.3c0.2,0,0.4-0.1,0.6-0.3s0.2-0.5,0.2-0.9c0-0.4-0.1-0.6-0.2-0.8
		c-0.2-0.2-0.4-0.3-0.6-0.3c-0.2,0-0.5,0.1-0.6,0.3C42.5,62.1,42.4,62.4,42.4,62.7z"/>
	<path d="M48.8,63.2l0.5,0.1c-0.1,0.3-0.2,0.5-0.4,0.7c-0.2,0.2-0.5,0.2-0.8,0.2c-0.4,0-0.8-0.1-1-0.4s-0.4-0.6-0.4-1.1
		c0-0.5,0.1-0.9,0.4-1.1c0.3-0.3,0.6-0.4,1-0.4c0.4,0,0.7,0.1,1,0.4c0.2,0.3,0.4,0.6,0.4,1.1c0,0,0,0.1,0,0.1h-2.2
		c0,0.3,0.1,0.6,0.3,0.7c0.2,0.2,0.4,0.3,0.6,0.3c0.2,0,0.3,0,0.5-0.1C48.6,63.6,48.7,63.5,48.8,63.2z M47.1,62.4h1.6
		c0-0.2-0.1-0.4-0.2-0.6c-0.2-0.2-0.4-0.3-0.6-0.3c-0.2,0-0.4,0.1-0.6,0.2C47.2,62,47.1,62.2,47.1,62.4z"/>
	<path d="M49.9,64.2v-2.9h0.4v0.4c0.2-0.3,0.5-0.5,0.9-0.5c0.2,0,0.3,0,0.5,0.1c0.1,0.1,0.3,0.1,0.3,0.2c0.1,0.1,0.1,0.2,0.2,0.4
		c0,0.1,0,0.3,0,0.5v1.8h-0.5v-1.8c0-0.2,0-0.4-0.1-0.5c0-0.1-0.1-0.2-0.2-0.2s-0.2-0.1-0.3-0.1c-0.2,0-0.4,0.1-0.5,0.2
		c-0.2,0.1-0.2,0.4-0.2,0.8v1.6H49.9z"/>
	<path d="M56.5,63.1l0.5,0.1c-0.1,0.3-0.2,0.6-0.4,0.8s-0.5,0.3-0.8,0.3c-0.4,0-0.7-0.1-1-0.4c-0.2-0.3-0.4-0.6-0.4-1.1
		c0-0.3,0.1-0.6,0.2-0.8c0.1-0.2,0.3-0.4,0.5-0.5c0.2-0.1,0.4-0.2,0.7-0.2c0.3,0,0.6,0.1,0.8,0.2s0.3,0.4,0.4,0.7l-0.5,0.1
		c0-0.2-0.1-0.3-0.2-0.4s-0.3-0.1-0.4-0.1c-0.2,0-0.5,0.1-0.6,0.3c-0.2,0.2-0.2,0.5-0.2,0.8c0,0.4,0.1,0.7,0.2,0.9s0.3,0.3,0.6,0.3
		c0.2,0,0.4-0.1,0.5-0.2C56.4,63.5,56.5,63.4,56.5,63.1z"/>
	<path d="M57.2,62.7c0-0.5,0.2-0.9,0.5-1.2c0.3-0.2,0.6-0.3,0.9-0.3c0.4,0,0.7,0.1,1,0.4c0.3,0.3,0.4,0.6,0.4,1.1
		c0,0.4-0.1,0.7-0.2,0.9c-0.1,0.2-0.3,0.4-0.5,0.5s-0.5,0.2-0.7,0.2c-0.4,0-0.7-0.1-1-0.4S57.2,63.2,57.2,62.7z M57.7,62.7
		c0,0.4,0.1,0.7,0.2,0.8c0.2,0.2,0.4,0.3,0.6,0.3c0.2,0,0.5-0.1,0.6-0.3s0.2-0.5,0.2-0.9c0-0.4-0.1-0.6-0.2-0.8
		c-0.2-0.2-0.4-0.3-0.6-0.3c-0.2,0-0.5,0.1-0.6,0.3C57.8,62.1,57.7,62.4,57.7,62.7z"/>
	<path d="M60.5,64.2v-2.9H61v0.4c0.2-0.3,0.5-0.5,0.9-0.5c0.2,0,0.3,0,0.5,0.1c0.1,0.1,0.3,0.1,0.3,0.2s0.1,0.2,0.2,0.4
		c0,0.1,0,0.3,0,0.5v1.8h-0.5v-1.8c0-0.2,0-0.4-0.1-0.5c0-0.1-0.1-0.2-0.2-0.2c-0.1-0.1-0.2-0.1-0.3-0.1c-0.2,0-0.4,0.1-0.5,0.2
		C61.1,62,61,62.2,61,62.6v1.6H60.5z"/>
	<path d="M65.6,63.1l0.5,0.1c-0.1,0.3-0.2,0.6-0.4,0.8s-0.5,0.3-0.8,0.3c-0.4,0-0.7-0.1-1-0.4c-0.2-0.3-0.4-0.6-0.4-1.1
		c0-0.3,0.1-0.6,0.2-0.8c0.1-0.2,0.3-0.4,0.5-0.5c0.2-0.1,0.4-0.2,0.7-0.2c0.3,0,0.6,0.1,0.8,0.2s0.3,0.4,0.4,0.7l-0.5,0.1
		c0-0.2-0.1-0.3-0.2-0.4s-0.3-0.1-0.4-0.1c-0.2,0-0.5,0.1-0.6,0.3c-0.2,0.2-0.2,0.5-0.2,0.8c0,0.4,0.1,0.7,0.2,0.9s0.3,0.3,0.6,0.3
		c0.2,0,0.4-0.1,0.5-0.2C65.4,63.5,65.5,63.4,65.6,63.1z"/>
	<path d="M66.5,60.7v-0.6H67v0.6H66.5z M66.5,64.2v-2.9H67v2.9H66.5z"/>
	<path d="M67.7,64.2v-4h0.5v4H67.7z"/>
	<path d="M69,60.7v-0.6h0.5v0.6H69z M69,64.2v-2.9h0.5v2.9H69z"/>
	<path d="M72.1,63.8c-0.2,0.2-0.4,0.3-0.5,0.3c-0.2,0.1-0.4,0.1-0.5,0.1c-0.3,0-0.6-0.1-0.7-0.2c-0.2-0.2-0.3-0.4-0.3-0.6
		c0-0.1,0-0.3,0.1-0.4s0.2-0.2,0.3-0.3s0.2-0.1,0.4-0.2c0.1,0,0.2,0,0.4-0.1c0.4,0,0.7-0.1,0.9-0.2c0-0.1,0-0.1,0-0.1
		c0-0.2,0-0.3-0.1-0.4c-0.1-0.1-0.3-0.2-0.6-0.2c-0.2,0-0.4,0-0.5,0.1c-0.1,0.1-0.2,0.2-0.2,0.4l-0.5-0.1c0-0.2,0.1-0.4,0.2-0.5
		s0.2-0.2,0.4-0.3s0.4-0.1,0.7-0.1c0.2,0,0.5,0,0.6,0.1c0.2,0.1,0.3,0.1,0.3,0.2s0.1,0.2,0.2,0.3c0,0.1,0,0.2,0,0.5V63
		c0,0.5,0,0.8,0,0.9c0,0.1,0.1,0.2,0.1,0.4h-0.5C72.2,64.1,72.1,64,72.1,63.8z M72.1,62.7c-0.2,0.1-0.4,0.1-0.8,0.2
		c-0.2,0-0.3,0.1-0.4,0.1c-0.1,0-0.1,0.1-0.2,0.2c0,0.1-0.1,0.1-0.1,0.2c0,0.1,0,0.2,0.2,0.3c0.1,0.1,0.2,0.1,0.4,0.1s0.4,0,0.5-0.1
		c0.1-0.1,0.3-0.2,0.3-0.3c0.1-0.1,0.1-0.3,0.1-0.5V62.7z"/>
	<path d="M75.3,63.1l0.5,0.1c-0.1,0.3-0.2,0.6-0.4,0.8s-0.5,0.3-0.8,0.3c-0.4,0-0.7-0.1-1-0.4c-0.2-0.3-0.4-0.6-0.4-1.1
		c0-0.3,0.1-0.6,0.2-0.8c0.1-0.2,0.3-0.4,0.5-0.5c0.2-0.1,0.4-0.2,0.7-0.2c0.3,0,0.6,0.1,0.8,0.2s0.3,0.4,0.4,0.7l-0.5,0.1
		c0-0.2-0.1-0.3-0.2-0.4s-0.3-0.1-0.4-0.1c-0.2,0-0.5,0.1-0.6,0.3c-0.2,0.2-0.2,0.5-0.2,0.8c0,0.4,0.1,0.7,0.2,0.9s0.3,0.3,0.6,0.3
		c0.2,0,0.4-0.1,0.5-0.2C75.1,63.5,75.2,63.4,75.3,63.1z"/>
	<path d="M76.2,60.7v-0.6h0.5v0.6H76.2z M76.2,64.2v-2.9h0.5v2.9H76.2z"/>
	<path d="M77.2,62.7c0-0.5,0.2-0.9,0.5-1.2c0.3-0.2,0.6-0.3,0.9-0.3c0.4,0,0.7,0.1,1,0.4c0.3,0.3,0.4,0.6,0.4,1.1
		c0,0.4-0.1,0.7-0.2,0.9c-0.1,0.2-0.3,0.4-0.5,0.5s-0.5,0.2-0.7,0.2c-0.4,0-0.7-0.1-1-0.4S77.2,63.2,77.2,62.7z M77.7,62.7
		c0,0.4,0.1,0.7,0.2,0.8c0.2,0.2,0.4,0.3,0.6,0.3c0.2,0,0.5-0.1,0.6-0.3s0.2-0.5,0.2-0.9c0-0.4-0.1-0.6-0.2-0.8
		c-0.2-0.2-0.4-0.3-0.6-0.3c-0.2,0-0.5,0.1-0.6,0.3C77.8,62.1,77.7,62.4,77.7,62.7z M78.3,60.9l0.4-0.8h0.6l-0.6,0.8H78.3z"/>
	<path d="M80.5,64.2v-2.9H81v0.4c0.2-0.3,0.5-0.5,0.9-0.5c0.2,0,0.3,0,0.5,0.1c0.1,0.1,0.3,0.1,0.3,0.2s0.1,0.2,0.2,0.4
		c0,0.1,0,0.3,0,0.5v1.8h-0.5v-1.8c0-0.2,0-0.4-0.1-0.5c0-0.1-0.1-0.2-0.2-0.2c-0.1-0.1-0.2-0.1-0.3-0.1c-0.2,0-0.4,0.1-0.5,0.2
		C81.1,62,81,62.2,81,62.6v1.6H80.5z"/>
</g>
<g>
	<path d="M44.6,70.1h-0.4v-2.6c-0.1,0.1-0.2,0.2-0.4,0.3c-0.2,0.1-0.3,0.2-0.4,0.2v-0.4c0.2-0.1,0.4-0.2,0.6-0.4s0.3-0.3,0.4-0.4
		h0.3V70.1z"/>
	<path d="M45.6,68.4c0-0.4,0-0.7,0.1-1c0.1-0.2,0.2-0.4,0.4-0.6c0.2-0.1,0.4-0.2,0.6-0.2c0.2,0,0.3,0,0.5,0.1
		c0.1,0.1,0.2,0.2,0.3,0.3s0.2,0.3,0.2,0.5c0.1,0.2,0.1,0.5,0.1,0.8c0,0.4,0,0.7-0.1,0.9s-0.2,0.4-0.4,0.6c-0.2,0.1-0.4,0.2-0.6,0.2
		c-0.3,0-0.6-0.1-0.8-0.3C45.7,69.5,45.6,69.1,45.6,68.4z M46,68.4c0,0.5,0.1,0.9,0.2,1.1c0.1,0.2,0.3,0.3,0.5,0.3
		c0.2,0,0.3-0.1,0.5-0.3c0.1-0.2,0.2-0.5,0.2-1.1c0-0.5-0.1-0.9-0.2-1.1c-0.1-0.2-0.3-0.3-0.5-0.3c-0.2,0-0.3,0.1-0.5,0.2
		C46.1,67.5,46,67.9,46,68.4z"/>
	<path d="M48.2,68.4c0-0.4,0-0.7,0.1-1c0.1-0.2,0.2-0.4,0.4-0.6c0.2-0.1,0.4-0.2,0.6-0.2c0.2,0,0.3,0,0.5,0.1
		c0.1,0.1,0.2,0.2,0.3,0.3s0.2,0.3,0.2,0.5c0.1,0.2,0.1,0.5,0.1,0.8c0,0.4,0,0.7-0.1,0.9s-0.2,0.4-0.4,0.6c-0.2,0.1-0.4,0.2-0.6,0.2
		c-0.3,0-0.6-0.1-0.8-0.3C48.3,69.5,48.2,69.1,48.2,68.4z M48.6,68.4c0,0.5,0.1,0.9,0.2,1.1c0.1,0.2,0.3,0.3,0.5,0.3
		c0.2,0,0.3-0.1,0.5-0.3c0.1-0.2,0.2-0.5,0.2-1.1c0-0.5-0.1-0.9-0.2-1.1c-0.1-0.2-0.3-0.3-0.5-0.3c-0.2,0-0.3,0.1-0.5,0.2
		C48.7,67.5,48.6,67.9,48.6,68.4z"/>
	<path d="M50.8,68.4c0-0.4,0-0.7,0.1-1c0.1-0.2,0.2-0.4,0.4-0.6c0.2-0.1,0.4-0.2,0.6-0.2c0.2,0,0.3,0,0.5,0.1s0.2,0.2,0.3,0.3
		c0.1,0.1,0.2,0.3,0.2,0.5c0,0.2,0.1,0.5,0.1,0.8c0,0.4,0,0.7-0.1,0.9s-0.2,0.4-0.4,0.6c-0.2,0.1-0.4,0.2-0.6,0.2
		c-0.3,0-0.6-0.1-0.8-0.3C50.9,69.5,50.8,69.1,50.8,68.4z M51.2,68.4c0,0.5,0.1,0.9,0.2,1.1c0.1,0.2,0.3,0.3,0.5,0.3
		c0.2,0,0.3-0.1,0.5-0.3c0.1-0.2,0.2-0.5,0.2-1.1c0-0.5-0.1-0.9-0.2-1.1c-0.1-0.2-0.3-0.3-0.5-0.3c-0.2,0-0.3,0.1-0.5,0.2
		C51.3,67.5,51.2,67.9,51.2,68.4z"/>
	<path d="M53.3,69.1v-0.4h1.3v0.4H53.3z"/>
	<path d="M56.5,70.1h-0.4v-2.6c-0.1,0.1-0.2,0.2-0.4,0.3c-0.2,0.1-0.3,0.2-0.4,0.2v-0.4c0.2-0.1,0.4-0.2,0.6-0.4
		c0.2-0.2,0.3-0.3,0.4-0.4h0.3V70.1z"/>
</g>
<g>
	<path d="M22.9,79.3v-3.8h2.7V76h-2.2v1.2h2.1v0.4h-2.1v1.3h2.3v0.4H22.9z"/>
	<path d="M26.3,78.1l0.5,0c0,0.2,0.1,0.3,0.2,0.5s0.2,0.2,0.4,0.3c0.2,0.1,0.4,0.1,0.6,0.1c0.2,0,0.4,0,0.5-0.1s0.3-0.1,0.3-0.2
		s0.1-0.2,0.1-0.3c0-0.1,0-0.2-0.1-0.3c-0.1-0.1-0.2-0.2-0.3-0.2c-0.1,0-0.3-0.1-0.7-0.2c-0.3-0.1-0.6-0.2-0.7-0.2
		c-0.2-0.1-0.3-0.2-0.4-0.4c-0.1-0.1-0.1-0.3-0.1-0.5c0-0.2,0.1-0.4,0.2-0.5c0.1-0.2,0.3-0.3,0.5-0.4c0.2-0.1,0.4-0.1,0.7-0.1
		c0.3,0,0.5,0,0.7,0.1c0.2,0.1,0.4,0.2,0.5,0.4c0.1,0.2,0.2,0.4,0.2,0.6l-0.5,0c0-0.2-0.1-0.4-0.3-0.5c-0.1-0.1-0.4-0.2-0.7-0.2
		c-0.3,0-0.5,0.1-0.7,0.2c-0.1,0.1-0.2,0.2-0.2,0.4c0,0.1,0,0.2,0.1,0.3c0.1,0.1,0.3,0.2,0.8,0.3s0.7,0.2,0.8,0.2
		c0.2,0.1,0.4,0.2,0.5,0.4c0.1,0.2,0.2,0.3,0.2,0.5c0,0.2-0.1,0.4-0.2,0.6s-0.3,0.3-0.5,0.4c-0.2,0.1-0.5,0.1-0.7,0.1
		c-0.3,0-0.6,0-0.9-0.1s-0.4-0.2-0.5-0.4S26.3,78.4,26.3,78.1z"/>
	<path d="M31.2,78.2v-0.5h1.4v0.5H31.2z"/>
	<path d="M34.5,77.5c0-0.4,0-0.8,0.1-1.1c0.1-0.3,0.2-0.5,0.4-0.6s0.4-0.2,0.7-0.2c0.2,0,0.4,0,0.5,0.1c0.2,0.1,0.3,0.2,0.4,0.4
		s0.2,0.3,0.2,0.6c0.1,0.2,0.1,0.5,0.1,0.9c0,0.4,0,0.8-0.1,1.1c-0.1,0.3-0.2,0.5-0.4,0.6s-0.4,0.2-0.7,0.2c-0.4,0-0.6-0.1-0.9-0.4
		C34.6,78.7,34.5,78.2,34.5,77.5z M34.9,77.5c0,0.6,0.1,1,0.2,1.2c0.1,0.2,0.3,0.3,0.5,0.3s0.4-0.1,0.5-0.3s0.2-0.6,0.2-1.2
		c0-0.6-0.1-1-0.2-1.2c-0.1-0.2-0.3-0.3-0.5-0.3c-0.2,0-0.4,0.1-0.5,0.3C35,76.4,34.9,76.8,34.9,77.5z"/>
	<path d="M39.8,78.9v0.4h-2.5c0-0.1,0-0.2,0.1-0.3c0.1-0.2,0.2-0.3,0.3-0.5s0.3-0.4,0.6-0.6c0.4-0.3,0.7-0.6,0.8-0.8
		c0.1-0.2,0.2-0.4,0.2-0.6c0-0.2-0.1-0.3-0.2-0.5c-0.1-0.1-0.3-0.2-0.5-0.2c-0.2,0-0.4,0.1-0.5,0.2s-0.2,0.3-0.2,0.6l-0.5,0
		c0-0.4,0.2-0.6,0.4-0.8c0.2-0.2,0.5-0.3,0.9-0.3c0.4,0,0.6,0.1,0.9,0.3c0.2,0.2,0.3,0.5,0.3,0.7c0,0.2,0,0.3-0.1,0.4
		c-0.1,0.1-0.2,0.3-0.3,0.5c-0.1,0.2-0.4,0.4-0.7,0.7c-0.3,0.2-0.5,0.4-0.5,0.5c-0.1,0.1-0.1,0.2-0.2,0.3H39.8z"/>
	<path d="M42.8,78.9v0.4h-2.5c0-0.1,0-0.2,0.1-0.3c0.1-0.2,0.2-0.3,0.3-0.5s0.3-0.4,0.6-0.6c0.4-0.3,0.7-0.6,0.8-0.8
		c0.1-0.2,0.2-0.4,0.2-0.6c0-0.2-0.1-0.3-0.2-0.5c-0.1-0.1-0.3-0.2-0.5-0.2c-0.2,0-0.4,0.1-0.5,0.2s-0.2,0.3-0.2,0.6l-0.5,0
		c0-0.4,0.2-0.6,0.4-0.8c0.2-0.2,0.5-0.3,0.9-0.3c0.4,0,0.6,0.1,0.9,0.3c0.2,0.2,0.3,0.5,0.3,0.7c0,0.2,0,0.3-0.1,0.4
		c-0.1,0.1-0.2,0.3-0.3,0.5c-0.1,0.2-0.4,0.4-0.7,0.7c-0.3,0.2-0.5,0.4-0.5,0.5c-0.1,0.1-0.1,0.2-0.2,0.3H42.8z"/>
	<path d="M44.5,79.4l1.1-3.9H46l-1.1,3.9H44.5z"/>
	<path d="M50.1,78.9v0.4h-2.5c0-0.1,0-0.2,0.1-0.3c0.1-0.2,0.2-0.3,0.3-0.5s0.3-0.4,0.6-0.6c0.4-0.3,0.7-0.6,0.8-0.8
		c0.1-0.2,0.2-0.4,0.2-0.6c0-0.2-0.1-0.3-0.2-0.5c-0.1-0.1-0.3-0.2-0.5-0.2c-0.2,0-0.4,0.1-0.5,0.2s-0.2,0.3-0.2,0.6l-0.5,0
		c0-0.4,0.2-0.6,0.4-0.8c0.2-0.2,0.5-0.3,0.9-0.3c0.4,0,0.6,0.1,0.9,0.3c0.2,0.2,0.3,0.5,0.3,0.7c0,0.2,0,0.3-0.1,0.4
		c-0.1,0.1-0.2,0.3-0.3,0.5c-0.1,0.2-0.4,0.4-0.7,0.7c-0.3,0.2-0.5,0.4-0.5,0.5c-0.1,0.1-0.1,0.2-0.2,0.3H50.1z"/>
	<path d="M50.6,77.5c0-0.4,0-0.8,0.1-1.1c0.1-0.3,0.2-0.5,0.4-0.6c0.2-0.1,0.4-0.2,0.7-0.2c0.2,0,0.4,0,0.5,0.1
		c0.2,0.1,0.3,0.2,0.4,0.4s0.2,0.3,0.2,0.6s0.1,0.5,0.1,0.9c0,0.4,0,0.8-0.1,1.1c-0.1,0.3-0.2,0.5-0.4,0.6s-0.4,0.2-0.7,0.2
		c-0.4,0-0.7-0.1-0.9-0.4C50.7,78.7,50.6,78.2,50.6,77.5z M51.1,77.5c0,0.6,0.1,1,0.2,1.2c0.1,0.2,0.3,0.3,0.5,0.3s0.4-0.1,0.5-0.3
		c0.1-0.2,0.2-0.6,0.2-1.2c0-0.6-0.1-1-0.2-1.2c-0.1-0.2-0.3-0.3-0.5-0.3c-0.2,0-0.4,0.1-0.5,0.3C51.2,76.4,51.1,76.8,51.1,77.5z"/>
	<path d="M53.5,77.5c0-0.4,0-0.8,0.1-1.1s0.2-0.5,0.4-0.6c0.2-0.1,0.4-0.2,0.7-0.2c0.2,0,0.4,0,0.5,0.1c0.2,0.1,0.3,0.2,0.4,0.4
		s0.2,0.3,0.2,0.6s0.1,0.5,0.1,0.9c0,0.4,0,0.8-0.1,1.1c-0.1,0.3-0.2,0.5-0.4,0.6c-0.2,0.1-0.4,0.2-0.7,0.2c-0.4,0-0.7-0.1-0.9-0.4
		C53.7,78.7,53.5,78.2,53.5,77.5z M54,77.5c0,0.6,0.1,1,0.2,1.2c0.1,0.2,0.3,0.3,0.5,0.3s0.4-0.1,0.5-0.3s0.2-0.6,0.2-1.2
		c0-0.6-0.1-1-0.2-1.2c-0.1-0.2-0.3-0.3-0.5-0.3c-0.2,0-0.4,0.1-0.5,0.3C54.1,76.4,54,76.8,54,77.5z"/>
	<path d="M56.5,76v-0.4h2.4V76c-0.2,0.3-0.5,0.6-0.7,1s-0.4,0.9-0.5,1.3c-0.1,0.3-0.2,0.7-0.2,1H57c0-0.3,0.1-0.7,0.2-1.1
		c0.1-0.4,0.3-0.8,0.5-1.2c0.2-0.4,0.4-0.7,0.7-1H56.5z"/>
	<path d="M60.6,79.4l1.1-3.9h0.4L61,79.4H60.6z"/>
	<path d="M64,79.3v-3.8h0.5v3.3h1.9v0.4H64z"/>
	<path d="M66.9,79.3v-3.8h1.7c0.3,0,0.6,0,0.8,0.1c0.2,0.1,0.3,0.2,0.4,0.4c0.1,0.2,0.2,0.4,0.2,0.6c0,0.3-0.1,0.5-0.3,0.7
		c-0.2,0.2-0.4,0.3-0.8,0.4c0.1,0.1,0.2,0.1,0.3,0.2c0.1,0.1,0.3,0.3,0.4,0.5l0.7,1h-0.6l-0.5-0.8c-0.1-0.2-0.3-0.4-0.4-0.5
		s-0.2-0.2-0.3-0.3c-0.1,0-0.2-0.1-0.2-0.1c-0.1,0-0.1,0-0.3,0h-0.6v1.7H66.9z M67.4,77.2h1.1c0.2,0,0.4,0,0.5-0.1
		c0.1,0,0.2-0.1,0.3-0.2c0.1-0.1,0.1-0.2,0.1-0.3c0-0.2-0.1-0.3-0.2-0.4C69.1,76,68.9,76,68.6,76h-1.2V77.2z"/>
	<path d="M73.6,78.9c0.2,0.2,0.4,0.3,0.6,0.4l-0.1,0.3c-0.3-0.1-0.5-0.3-0.8-0.5c-0.3,0.2-0.6,0.2-0.9,0.2c-0.3,0-0.7-0.1-0.9-0.2
		s-0.5-0.4-0.6-0.7s-0.2-0.6-0.2-1c0-0.4,0.1-0.7,0.2-1s0.4-0.5,0.6-0.7c0.3-0.2,0.6-0.2,0.9-0.2c0.3,0,0.7,0.1,0.9,0.2
		s0.5,0.4,0.6,0.7c0.1,0.3,0.2,0.6,0.2,1c0,0.3,0,0.6-0.1,0.8C73.9,78.5,73.8,78.7,73.6,78.9z M72.5,78.3c0.3,0.1,0.5,0.2,0.7,0.4
		c0.3-0.3,0.4-0.7,0.4-1.2c0-0.3-0.1-0.6-0.2-0.8s-0.3-0.4-0.5-0.5s-0.4-0.2-0.7-0.2c-0.4,0-0.7,0.1-0.9,0.4
		c-0.2,0.3-0.4,0.6-0.4,1.1c0,0.5,0.1,0.9,0.4,1.1c0.2,0.3,0.6,0.4,0.9,0.4c0.2,0,0.3,0,0.5-0.1c-0.2-0.1-0.3-0.2-0.5-0.2L72.5,78.3
		z"/>
	<path d="M74.4,79.3l1.5-3.8h0.5l1.5,3.8h-0.6l-0.4-1.1h-1.6l-0.4,1.1H74.4z M75.5,77.8h1.3l-0.4-1c-0.1-0.3-0.2-0.6-0.3-0.8
		c0,0.2-0.1,0.5-0.2,0.7L75.5,77.8z"/>
</g>
<g>
	<path d="M52.1,56.4c0-2.6,0-5.3,0-8l0-4.1c0-1.6,0-3.1,0-4.7c0-0.2,0-0.6-0.3-0.8c-0.2-0.2-0.4-0.3-0.7-0.3l-0.1,0
		c-0.1,0-0.2,0-0.3,0l-0.7,0c0-1.3,0-2.6,0-3.8l0.8,0c0.1,0,0.2,0,0.3,0c0,0,0,0,0,0c0.4,0,0.6-0.1,0.7-0.2c0.2-0.2,0.3-0.5,0.3-0.7
		c0-1.2,0-2.6,0.1-3.9c0.1-2.6,1.1-3.8,3.6-4.3c0.1,0,0.2,0,0.3-0.1h2c0.3,0.1,0.6,0.1,0.9,0.2c0.5,0.1,1.1,0.2,1.6,0.4
		c0.1,0,0.2,0.1,0.2,0.1l0,0c0,0,0,0,0,0.2c0,1,0,2,0,3.2c-0.5-0.1-1-0.2-1.5-0.2c-0.3,0-0.5,0-0.8,0.1c-1,0.2-1.5,0.8-1.5,1.8
		c0,0.5,0,1.1,0,1.6c0,0.4,0,0.8,0,1.1c0,0.3,0.1,0.5,0.2,0.7c0.2,0.2,0.6,0.2,0.7,0.2l1.8,0c0.3,0,0.6,0,0.9,0c0,1.3,0,2.6,0,3.8
		c-0.4,0-2.4,0-2.4,0c-0.9,0-1.2,0.2-1.2,1.1l0,16.4c0,0.1,0,0.2,0,0.3c-0.8,0-1.6,0-2.4,0C53.7,56.4,52.9,56.4,52.1,56.4L52.1,56.4
		C52.1,56.4,52.1,56.4,52.1,56.4z"/>
	<path d="M58,26c0.3,0.1,0.5,0.1,0.8,0.2c0.5,0.1,0.9,0.2,1.3,0.3c0,0.7,0,1.5,0,2.3c-0.3-0.1-0.6-0.1-1-0.1c-0.3,0-0.6,0-0.9,0.1
		c-1.2,0.3-1.9,1-1.9,2.2c0,0.5,0,1.1,0,1.6c0,0.4,0,0.8,0,1.1c0,0.5,0.2,0.8,0.4,1c0.3,0.3,0.6,0.4,1,0.4c0,0,0,0,0,0l0.5,0l0.6,0
		l0.6,0c0.1,0,0.3,0,0.4,0c0,0.9,0,1.9,0,2.8c-0.2,0-0.3,0-0.5,0l-0.8,0l-0.6,0c-1.2,0-1.7,0.4-1.7,1.6l0,12.2l0,4
		c-0.6,0-1.3,0-1.9,0c-0.6,0-1.3,0-1.9,0c0-2.5,0-5.1,0-7.6l0-2.4l0-1.6c0-1.5,0-3.1,0-4.6c0-0.2,0-0.7-0.4-1.2
		c-0.2-0.2-0.5-0.4-1-0.4c-0.1,0-0.1,0-0.2,0c-0.1,0-0.2,0-0.3,0l-0.2,0c0-0.9,0-1.9,0-2.8l0.3,0c0.1,0,0.2,0,0.3,0c0,0,0.1,0,0.1,0
		c0.5,0,0.8-0.2,1-0.4c0.4-0.4,0.4-0.9,0.4-1.1c0-1.2,0-2.5,0.1-3.9c0.1-2.3,1-3.4,3.2-3.9c0.1,0,0.2,0,0.3-0.1H58 M58.1,25
		c-0.7,0-1.5,0-2.2,0c-0.1,0.1-0.2,0.1-0.2,0.1c-2.7,0.6-3.9,2-4,4.8c-0.1,1.3-0.1,2.6-0.1,3.9c0,0.3-0.1,0.5-0.4,0.5c0,0,0,0-0.1,0
		c-0.1,0-0.2,0-0.4,0c-0.2,0-0.4,0-0.6,0c-0.1,0-0.2,0-0.2,0c0,0,0,0,0,0c-0.3,0-0.4,0.1-0.4,0.4c0,1.3,0,2.7,0,4
		c0,0.3,0.1,0.4,0.4,0.4c0,0,0,0,0,0c0.1,0,0.1,0,0.2,0c0.2,0,0.4,0,0.6,0c0.1,0,0.2,0,0.4,0c0,0,0.1,0,0.1,0c0.3,0,0.5,0.2,0.4,0.6
		c0,2.1,0,4.2,0,6.3c0,3.5,0,7,0,10.5c0,0.4,0.1,0.5,0.5,0.5c0,0,0,0,0,0c0.8,0,1.6,0,2.4,0c0.8,0,1.6,0,2.4,0c0,0,0,0,0,0
		c0.4,0,0.5-0.1,0.5-0.5c0-0.1,0-0.3,0-0.4c0-5.4,0-10.8,0-16.2c0-0.6,0-0.6,0.7-0.6c0.5,0,0.9,0,1.4,0c0.3,0,0.7,0,1,0c0,0,0,0,0,0
		c0.3,0,0.5-0.1,0.5-0.5c0-1.3,0-2.6,0-3.9c0-0.3-0.1-0.5-0.4-0.5c0,0,0,0,0,0c-0.3,0-0.7,0-1,0c-0.4,0-0.8,0-1.2,0
		c-0.2,0-0.4,0-0.5,0c0,0,0,0,0,0c-0.3,0-0.4-0.1-0.4-0.4c0-0.9,0-1.8,0-2.8c0-0.8,0.3-1.1,1.1-1.3c0.2,0,0.4-0.1,0.7-0.1
		c0.5,0,1,0.1,1.5,0.2c0.1,0,0.2,0,0.2,0c0.2,0,0.3-0.1,0.3-0.4c0-1.1,0-2.2,0-3.3c0-0.4-0.1-0.6-0.5-0.7
		C59.8,25.3,58.9,25.2,58.1,25L58.1,25z"/>
</g>
<g>
	<path d="M64.9,56.4C64.9,56.4,64.9,56.4,64.9,56.4c0-7.2,0-14.4,0-21.6c0,0,0,0,0,0c0,0,0,0,0,0c0.7,0,1.3,0,2,0c0.7,0,1.4,0,2,0
		c0,0.5,0,1,0,1.5l0,2.2l0.9-1.3c0.6-0.8,1.1-1.5,1.8-2c0.9-0.6,1.8-0.9,2.7-0.9c0.6,0,1.2,0.1,1.8,0.4c0,0,0,0,0,0
		c-0.5,1.4-1,2.7-1.4,4c-0.6-0.2-1-0.3-1.5-0.3c-1.1,0-2,0.6-2.6,1.9c-0.7,1.3-0.8,2.8-0.9,4c-0.1,2.5-0.1,5.1-0.1,7.6
		c0,1.5,0,3,0,4.5c0,0.1,0,0.1,0,0.2c-0.1,0-2.7,0-2.7,0C66.4,56.4,65.7,56.4,64.9,56.4L64.9,56.4C65,56.4,64.9,56.4,64.9,56.4z"/>
	<path d="M74.4,34.7c0.4,0,0.8,0.1,1.2,0.2c-0.3,0.9-0.7,1.9-1.1,3c-0.4-0.1-0.8-0.2-1.2-0.2c-1.3,0-2.3,0.7-3.1,2.2
		c-0.7,1.4-0.9,2.9-0.9,4.2c-0.1,2.5-0.1,5.1-0.1,7.6c0,1.4,0,2.8,0,4.1l-1,0l-1.2,0c-0.5,0-1.1,0-1.6,0c0-6.6,0-13.4,0-20.6
		c0.5,0,1,0,1.5,0c0.5,0,1,0,1.5,0c0,0.3,0,0.7,0,1l0,0.6l0,3.1l1.8-2.6c0.5-0.8,1-1.4,1.6-1.9C72.8,35,73.5,34.7,74.4,34.7
		 M74.4,33.7c-1,0-2,0.3-3,1c-0.8,0.6-1.3,1.3-1.9,2.1c0-0.7,0-1.4,0-2.1c0-0.4-0.1-0.5-0.5-0.5c0,0,0,0,0,0c-0.7,0-1.4,0-2,0
		c-0.7,0-1.3,0-2,0c0,0,0,0,0,0c-0.4,0-0.5,0.1-0.5,0.5c0,7.2,0,14.4,0,21.5c0,0.4,0.2,0.6,0.6,0.6c0,0,0,0,0,0c0.7,0,1.3,0,2,0
		c0.8,0,1.6,0,2.4,0c0,0,0,0,0.1,0c0.7,0,0.7,0,0.7-0.7c0-4-0.1-8,0.1-12c0.1-1.3,0.2-2.6,0.8-3.8c0.6-1.1,1.3-1.6,2.2-1.6
		c0.4,0,0.9,0.1,1.4,0.3c0.1,0,0.2,0.1,0.2,0.1c0.1,0,0.2-0.1,0.3-0.3c0.5-1.4,1-2.7,1.5-4.1c0.1-0.4,0-0.5-0.3-0.7
		C75.7,33.9,75,33.7,74.4,33.7L74.4,33.7z"/>
</g>
<g>
	<path d="M36.7,57c-1.1,0-2.1-0.1-3.2-0.3c-1.9-0.4-3.7-1.3-5.3-2.9c-2.4-2.3-3.5-5.3-3.3-9.2c0.2-2.5,1-4.5,2.4-6.2
		c2.2-2.5,4.7-3.9,7.8-4.1c0.5,0,0.9-0.1,1.4-0.1c1.9,0,3.4,0.3,4.9,0.9c3.7,1.6,5.8,4.5,6.5,8.5c0.2,1,0.2,2.1,0.2,3c0,0,0,0,0,0
		c0,0,0,0,0,0c-1.5,0-3,0-4.5,0l-12.9,0c-0.4,0-0.7,0-0.9,0.3c-0.2,0.3-0.1,0.6,0,0.9c0.8,3,2.9,4.7,6.1,5c0.3,0,0.6,0,0.9,0
		c2.2,0,4.1-0.7,5.6-2.1c1.4,0.6,2.7,1.2,4,1.9c-2,2.5-4.6,3.9-8,4.2C37.7,56.9,37.2,57,36.7,57z M42.2,43.3c0.3,0,0.7,0,0.9-0.3
		c0.2-0.3,0.1-0.6-0.1-0.9c-0.4-1.1-1.1-1.9-2-2.6c-1.3-0.9-2.7-1.4-4.3-1.4c-0.4,0-0.9,0-1.4,0.1c-1.8,0.3-3.1,0.9-4.1,2
		c-0.5,0.6-0.9,1.2-1.2,1.8c-0.2,0.3-0.3,0.6-0.1,0.9c0.2,0.3,0.6,0.3,0.9,0.3l5.7,0L42.2,43.3z"/>
	<path d="M36.5,34.7c1.8,0,3.3,0.3,4.7,0.9c3.5,1.6,5.6,4.2,6.2,8.1c0.1,0.8,0.2,1.7,0.2,2.5c-1.3,0-2.7,0-4,0l-2.1,0l-2.1,0l-0.7,0
		l-1.8,0l-1.8,0l-4.4,0c-0.4,0-0.9,0-1.3,0.5c-0.4,0.5-0.2,1-0.1,1.4c0.8,3.2,3.1,5.1,6.5,5.4c0.3,0,0.6,0,1,0c2.2,0,4.1-0.7,5.7-2
		c1,0.5,2.1,1,3.1,1.4c-1.9,2.1-4.2,3.3-7.2,3.5c-0.5,0-1,0.1-1.5,0.1c-1,0-2.1-0.1-3.1-0.3c-1.9-0.4-3.5-1.3-5.1-2.7
		c-2.4-2.2-3.3-5-3.1-8.8c0.2-2.4,0.9-4.3,2.2-5.9c2.1-2.4,4.5-3.7,7.4-3.9C35.6,34.8,36,34.7,36.5,34.7 M33.4,43.8l1.6,0l1.6,0
		l1.5,0l1.7,0l2.5,0c0.4,0,1,0,1.3-0.5c0.3-0.5,0.1-1.1,0-1.4c-0.5-1.1-1.2-2.1-2.2-2.8c-1.3-1-2.9-1.5-4.6-1.5c-0.5,0-1,0-1.5,0.1
		c-1.9,0.3-3.3,1-4.3,2.2c-0.6,0.6-0.9,1.3-1.3,1.9c-0.2,0.3-0.5,0.9-0.1,1.4c0.3,0.6,0.9,0.6,1.3,0.6L33.4,43.8 M36.5,33.7
		c-0.5,0-1,0-1.4,0.1c-3.3,0.2-6,1.8-8.1,4.3c-1.6,1.9-2.3,4.1-2.5,6.5c-0.2,3.7,0.6,7,3.4,9.6c1.6,1.5,3.4,2.5,5.5,3
		c1.1,0.2,2.2,0.3,3.3,0.3c0.5,0,1.1,0,1.6-0.1c3.4-0.3,6.3-1.8,8.4-4.5c0.2-0.3,0.2-0.4-0.1-0.6c-1.4-0.6-2.8-1.3-4.2-1.9
		c-0.1,0-0.2-0.1-0.2-0.1c-0.1,0-0.2,0-0.3,0.1c-1.5,1.4-3.3,2-5.3,2c-0.3,0-0.6,0-0.9,0c-2.8-0.2-4.9-1.8-5.6-4.6
		c-0.1-0.6-0.1-0.6,0.5-0.6c1.5,0,2.9,0,4.4,0c1.2,0,2.4,0,3.6,0c0.2,0,0.5,0,0.7,0c1.4,0,2.8,0,4.3,0c1.5,0,3,0,4.5,0c0,0,0,0,0,0
		c0.4,0,0.5-0.1,0.5-0.5c0-1,0-2.1-0.2-3.1c-0.7-4.2-2.9-7.1-6.8-8.8C39.9,34,38.2,33.7,36.5,33.7L36.5,33.7z M33.4,42.8
		c-0.9,0-1.7,0-2.6,0c-0.6,0-0.6,0-0.3-0.5c0.3-0.6,0.7-1.2,1.1-1.7c1-1.1,2.3-1.6,3.8-1.8c0.4-0.1,0.9-0.1,1.3-0.1
		c1.4,0,2.8,0.4,4,1.3c0.8,0.6,1.5,1.4,1.9,2.4c0.2,0.5,0.2,0.5-0.4,0.5c-0.8,0-1.7,0-2.5,0c-1.1,0-2.1,0-3.2,0
		C35.5,42.8,34.4,42.8,33.4,42.8L33.4,42.8z"/>
</g>
</svg>
