<?xml version="1.0" encoding="utf-8"?>
<!-- Generator: Adobe Illustrator 26.0.1, SVG Export Plug-In . SVG Version: 6.00 Build 0)  -->
<svg version="1.1" id="Capa_1" xmlns="http://www.w3.org/2000/svg" xmlns:xlink="http://www.w3.org/1999/xlink" x="0px" y="0px"
	 viewBox="0 0 100 100" style="enable-background:new 0 0 100 100;" xml:space="preserve">
<style type="text/css">
	.st0{fill:#211915;}
	.st1{fill-rule:evenodd;clip-rule:evenodd;fill:#211915;}
	.st2{fill:#211915;stroke:#211915;stroke-width:0.6079;}
</style>
<g>
	<g>
		<path class="st0" d="M47.5,58.7l-7.3-7.3l0-11.1l7.3,7.3l16.7-16.7C60,26.6,54,24,47.5,24c-13.1,0-23.6,10.6-23.6,23.6
			c0,13.1,10.6,23.6,23.6,23.6c13.1,0,23.6-10.6,23.6-23.6c0-3.7-0.8-7.1-2.3-10.2L47.5,58.7z"/>
	</g>
	<g>
		<path class="st0" d="M61.9,90.6c-2.2-0.7-2.6-2.5-2.5-4.6h3.1c0,1.4,0.1,2.6,1.8,2.6c1.1,0,1.6-0.7,1.6-1.7c0-2.7-6.3-2.8-6.3-7.3
			c0-2.3,1.1-4.2,4.9-4.2c3,0,4.5,1.4,4.3,4.5h-3c0-1.1-0.2-2.2-1.4-2.2c-1,0-1.6,0.6-1.6,1.6c0,2.8,6.3,2.6,6.3,7.2
			c0,2.6-1.3,3.6-2.8,4H61.9L61.9,90.6z"/>
		<path class="st0" d="M76.6,80.3c0-1.4-0.2-2.6-1.9-2.6c-1.9,0-1.9,2.6-1.9,5.5c0,4.6,0.5,5.5,2.2,5.5c0.5,0,1.1-0.1,1.5-0.3v-3.3
			h-1.7v-2.3h4.8v7.5c-0.3,0.1-0.9,0.2-1.4,0.2h-5.3c-2.9-0.7-3.3-3-3.3-7.5c0-3.7,0.2-7.5,5.3-7.5c3,0,4.9,1.7,4.8,4.8H76.6
			L76.6,80.3z"/>
		<path class="st0" d="M85.6,75.5c2.7,0,4.2,1.1,4.4,3.4v1h-3c0-1.1-0.3-2.2-1.5-2.2c-1,0-1.6,0.6-1.6,1.6c0,2.6,5.4,2.6,6.2,6.3
			v2.2c-0.3,1.7-1.4,2.5-2.7,2.9H83c-2.2-0.7-2.6-2.5-2.5-4.6h3.1c0,1.4,0.1,2.6,1.8,2.6c1,0,1.6-0.7,1.6-1.7c0-2.7-6.3-2.8-6.3-7.3
			C80.7,77.4,81.8,75.5,85.6,75.5L85.6,75.5z"/>
		<polygon class="st0" points="50.1,90.6 96.1,90.6 96.1,91.2 50.1,91.2 50.1,90.6 		"/>
		<polygon class="st0" points="90,72.8 90.6,72.8 90.6,94.2 90,94.2 90,72.8 		"/>
	</g>
	<g>
		<path class="st1" d="M72.4,16c-0.1-0.1-0.6-0.5-1.2,0.2l-0.9,1.1c-0.6,0.7-0.5,1.1-0.1,1.4c0.4,0.3,0.8,0.3,1.4-0.4l0.9-1.1
			C73,16.5,72.5,16.1,72.4,16z"/>
		<path class="st1" d="M48.3,8.3c0-0.3-0.1-0.7-0.6-0.7l-0.8,0l0,1.4l0.8,0C48.1,9.1,48.3,8.7,48.3,8.3z"/>
		<polygon class="st1" points="64.3,13.8 64.7,11.3 64.7,11.3 63.1,13.2 		"/>
		<path class="st1" d="M47.5,4.7C23.7,4.7,4.4,24,4.4,47.8c0,0,8.6,0,8.6,0c0-19,15.4-34.5,34.5-34.5c19,0,34.5,15.4,34.5,34.5v21.5
			h8.6V47.8C90.6,24,71.3,4.7,47.5,4.7z M21.8,22.3c-0.9,0.9-1.6,0.3-1.9,0l0.4-0.4l0.1,0.1c0.4,0.4,0.8,0.3,1.1,0
			c0.3-0.3,0.4-0.7,0-1.1c-0.7-0.7-2,0.8-2.9-0.1c-0.6-0.5-0.5-1.2,0-1.8c0.6-0.6,1.1-0.6,1.8,0l-0.4,0.4c-0.3-0.3-0.7-0.4-1-0.1
			c-0.2,0.2-0.3,0.6,0,0.9c0.7,0.7,2-0.8,3,0.1C22.5,21.1,22.3,21.8,21.8,22.3z M23.8,20.2l-1.1-1.3l-2.7-1.3l0.5-0.4l2,1l-0.7-2.2
			l0.4-0.4l0.9,2.8l1.1,1.3L23.8,20.2z M26.6,18.1c-1,0.8-1.6,0-1.9-0.4l0.4-0.3l0.1,0.1c0.3,0.5,0.8,0.4,1.1,0.2
			c0.4-0.3,0.5-0.6,0.2-1c-0.6-0.8-2.1,0.4-2.9-0.6c-0.5-0.6-0.2-1.3,0.4-1.7c0.7-0.5,1.2-0.4,1.7,0.3L25.3,15
			c-0.3-0.4-0.6-0.6-1-0.3c-0.3,0.2-0.4,0.5-0.2,0.9c0.6,0.8,2.1-0.5,2.9,0.7C27.5,17.1,27.2,17.7,26.6,18.1z M29,16.4L27,13l-1,0.6
			l-0.2-0.4l2.5-1.4l0.2,0.4l-1,0.6l2,3.4L29,16.4z M31,15.3l-1.9-4l2-1l0.2,0.4l-1.5,0.7l0.6,1.3l1.4-0.7l0.2,0.4l-1.4,0.7l0.6,1.4
			l1.6-0.7l0.2,0.4L31,15.3z M37.1,12.9l-1.2-3.7l0,0l0.1,4.1l-0.5,0.2L33,10.1l0,0l1.2,3.7L33.8,14l-1.4-4.2l0.9-0.3l2.2,3.1l0,0
			l-0.1-3.9l0.9-0.3l1.4,4.2L37.1,12.9z M41.3,12.1c-0.5,0.1-1.4,0.2-1.6-1.5l-0.2-1.2c-0.2-1.2,0.3-1.7,1.1-1.8
			c0.9-0.1,1.3,0.3,1.3,1.1l-0.6,0.1c0-0.2-0.1-0.5-0.2-0.6C41,8,40.7,8,40.6,8C40.1,8.1,40,8.4,40,8.5c0,0.1-0.1,0.2,0,0.9l0.2,1.2
			c0.2,1.1,0.5,1.1,1,1.1c0.2,0,0.7-0.2,0.5-1l0.6-0.1C42.5,11.9,41.5,12,41.3,12.1z M43.3,11.7L43,7.3l2.3-0.2l0,0.5l-1.7,0.1
			l0.1,1.4l1.6-0.1l0,0.5l-1.6,0.1l0.1,1.5l1.7-0.1l0,0.5L43.3,11.7z M48.3,11.6c-0.2-0.3-0.1-0.9-0.2-1.5c0-0.5-0.5-0.6-0.7-0.6
			l-0.7,0l0,2l-0.6,0l0.1-4.4l1.5,0c0.8,0,1,0.6,1,1.1c0,0.5-0.3,0.9-0.8,1v0c0.5,0.1,0.7,0.3,0.7,1.1c0,0.2,0.1,0.9,0.1,1.2
			L48.3,11.6z M52.5,7.9l-1.2-0.1L51,11.7l-0.6,0l0.3-3.9l-1.2-0.1l0-0.5l2.9,0.2L52.5,7.9z M53.3,12l-0.6-0.1l0.6-4.3l0.6,0.1
			L53.3,12z M56.8,10.6l-1.5-0.3l-0.4,2l-0.5-0.1l0.9-4.3l2.1,0.4l-0.1,0.5l-1.6-0.3l-0.3,1.4l1.5,0.3L56.8,10.6z M57.6,12.9
			l-0.5-0.1l1.1-4.2l0.5,0.1L57.6,12.9z M59.9,13.7c-0.5-0.2-1.3-0.5-0.8-2.1l0.4-1.2c0.4-1.2,1-1.3,1.8-1.1c0.8,0.3,1,0.8,0.7,1.6
			l-0.5-0.2c0.1-0.2,0.1-0.5,0.1-0.6c-0.1-0.2-0.3-0.3-0.4-0.3c-0.4-0.1-0.7,0.1-0.7,0.1c0,0-0.2,0.1-0.4,0.8l-0.4,1.1
			c-0.3,1-0.1,1.3,0.4,1.4c0.2,0.1,0.7,0.2,1-0.6l0.5,0.2C61.1,14.1,60.2,13.8,59.9,13.7z M64.7,15.6l-0.6-0.3l0.2-1.1l-1.5-0.7
			L62,14.4l-0.5-0.2l3.1-3.4l0.6,0.3L64.7,15.6z M65.4,16.1l2-3.4l-1-0.6l0.2-0.4l2.5,1.4l-0.2,0.4l-1-0.6l-2,3.4L65.4,16.1z
			 M67.4,17.3l2.5-3.6l0.5,0.3l-2.5,3.6L67.4,17.3z M69.8,19.2c-0.7-0.6-0.8-1.2,0-2.2l0.9-1.1c0.6-0.7,1.3-0.8,2-0.2
			c0.7,0.6,0.7,1.3,0.2,2l-0.9,1.1C71.1,19.7,70.5,19.8,69.8,19.2z M73.7,22.8l-0.5-0.6l1.6-3.9l0,0L72,21l-0.3-0.4l3.2-3l0.5,0.6
			L73.8,22l0,0l2.7-2.6l0.3,0.4L73.7,22.8z"/>
	</g>
</g>
<g>
	<path class="st2" d="M4.9,52.9l-0.1-0.8l6.5-0.7l0.1,0.8L4.9,52.9z"/>
	<path class="st2" d="M7.2,55.1l-0.2,0c-0.9,0.2-1,0.8-0.9,1.3c0.1,0.7,0.5,1.1,1.3,0.9c1.4-0.3,0.6-3.2,2.6-3.6
		c1.1-0.2,1.9,0.4,2.2,1.5c0.3,1.2-0.2,2-1.5,2.2l-0.2-0.9c0.7-0.1,1.1-0.5,1-1.2c-0.1-0.5-0.5-0.9-1.2-0.8
		c-1.4,0.3-0.6,3.1-2.6,3.6c-1.4,0.3-2-0.6-2.2-1.6c-0.4-1.9,1-2.2,1.6-2.3L7.2,55.1z"/>
	<path class="st2" d="M8.8,59.7l2-0.8c1.2-0.5,2.3-0.1,2.7,1.2c0.5,1.3-0.1,2.2-1.3,2.7l-2,0.8c-1.7,0.6-2.6,0.3-3.1-1.1
		C6.7,61.3,7.1,60.4,8.8,59.7z M9.9,62.8l2.1-0.8c1.3-0.5,1-1.4,0.9-1.6c-0.1-0.2-0.5-1.1-1.8-0.6l-2.1,0.8c-1.4,0.5-1.5,1-1.3,1.8
		C8.1,63.1,8.6,63.3,9.9,62.8z"/>
	<path class="st2" d="M9.8,68.2l0.6-0.4c3.2,0.3,3.9,0.5,4.8-0.1c0.4-0.3,0.6-0.6,0.3-1.1c-0.3-0.5-0.8-0.4-1.3-0.1l-0.4-0.7
		c0.9-0.6,1.7-0.5,2.3,0.4c0.6,1,0.4,1.7-0.6,2.3c-1.2,0.7-2,0.4-4.7,0.1l1.3,2.2l-0.6,0.4L9.8,68.2z"/>
	<path class="st2" d="M17.2,73.3c-1.3,1-2.6,2-3.6,0.7c-1.1-1.4,0.2-2.3,1.5-3.4c1.3-1,2.6-2,3.6-0.7C19.8,71.3,18.5,72.3,17.2,73.3
		z M15.4,71.4c-0.8,0.7-1.9,1.4-1.4,2.2c0.6,0.7,1.6-0.1,2.4-0.8c1.3-1,2.2-1.7,1.6-2.4C17.6,69.7,16.8,70.4,15.4,71.4z"/>
	<path class="st2" d="M17.1,77.8l-0.6-0.6l3.9-3.8l-1.1-0.2l0.6-0.6c0.2,0.1,1,0.2,1.3,0.2l0.5,0.5L17.1,77.8z"/>
	<path class="st2" d="M18.5,79.3l0.5-0.6c3.1-0.8,3.8-0.8,4.5-1.6c0.3-0.4,0.4-0.8-0.1-1.1c-0.5-0.4-0.9-0.1-1.2,0.3l-0.7-0.6
		c0.6-0.8,1.5-1,2.3-0.3c0.9,0.7,1,1.5,0.2,2.4c-0.9,1.1-1.8,1-4.4,1.6l1.9,1.6l-0.5,0.6L18.5,79.3z"/>
	<path class="st2" d="M24.2,83.6l-0.7-0.5l3-4.5l-1.1,0l0.4-0.7c0.2,0,1,0,1.3,0l0.6,0.4L24.2,83.6z"/>
</g>
</svg>
