<?xml version="1.0" encoding="utf-8"?>
<!-- Generator: Adobe Illustrator 26.0.1, SVG Export Plug-In . SVG Version: 6.00 Build 0)  -->
<svg version="1.1" id="Capa_1" xmlns="http://www.w3.org/2000/svg" xmlns:xlink="http://www.w3.org/1999/xlink" x="0px" y="0px"
	 viewBox="0 0 130 100" style="enable-background:new 0 0 130 100;" xml:space="preserve">
<style type="text/css">
	.st0{fill:#211915;stroke:#211915;stroke-width:0.4318;}
	.st1{fill:#FFFFFF;stroke:#FFFFFF;stroke-width:0.4338;}
	.st2{fill:#211915;stroke:#211915;stroke-width:1.301;}
	.st3{stroke:#000000;stroke-width:1.301;}
	.st4{fill:#211915;}
</style>
<g>
	<path class="st0" d="M96.1,15.2c-0.2,0-0.3,0.2-0.4,0.3c0.4,9.7,2.1,19.9,2.5,29.7c-0.9,1.9-3,1-4.5,1.5c-6.8,1-12.1,0.7-18.6,1.2
		c-2.5,0.7-5.3,0.9-7.7,1c-0.5-0.5,0.1-1.4-0.5-1.9c0.2-0.5,0.1-1.1-0.3-1.4c-0.5-2.7-0.8-5.6-1-8c-0.2-0.7-0.4-1.6-0.2-2.2
		c0.2-3.6-1.3-7.1-1.2-10.9L64,24.1c0-2.6,0-4.9-0.4-7.4c0.4-1,1.2-0.9,1.9-1.3c4.7,0.6,9.9-0.2,14.6,0c5.1-0.3,10.3-1,15.5-1.5
		L96.1,15.2L96.1,15.2z"/>
	<path class="st1" d="M91.7,28c0.1-0.5,0.6-0.3,0.9-0.5C92.3,28,90.8,28,91.4,29c0.4,0.3,1,0.2,1,0.8c-0.6,0-1.2-1-2-0.8
		c-0.5,0.2-0.3,0.9-1,1c-0.3-0.3,0.7-0.9,0.3-1.6c-0.3-0.5-0.9-0.1-1.2-0.5v-0.2c0.4,0.1,0.3-0.3,0.5-0.4c-0.2-0.7,0.5-1,0.7-1.4
		C90.9,26.5,90.1,28,91.7,28L91.7,28z"/>
	<path class="st1" d="M84.5,27.1c0,0.3,0.1,0.5,0.3,0.7c0.5,0,1.3-0.5,1.6,0c0.1,0.8-1.1,0.3-0.9,1.1c0.1,0.5,0.5,1,0.2,1.6
		c-0.6,0.1-1.1-0.6-1.7-0.8L82.6,31c0.1-0.7,0.6-1.3,0.4-2c-0.7-0.1-0.9-0.7-1.3-1.1c0.7-0.3,1.3,0.7,1.6-0.2l0.2-1.5
		C84.2,26.2,84.4,26.8,84.5,27.1L84.5,27.1z"/>
	<path class="st1" d="M79.6,28.1l0.1,0.1c-0.4,0.9-2.3,0.9-1.5,2.2c0.1,0.2,0.4,0.1,0.5,0.2v0.2c-1-1.5-1.7,0.5-2.7,0.7
		c-0.4-0.9,1.3-2.4-0.7-2.4l-0.3-0.4c0.7-0.6,1.6,0.7,2-0.3c-0.2-0.6,0.3-0.9,0.4-1.3C78.3,27.5,78.6,28.9,79.6,28.1L79.6,28.1z"/>
	<path class="st1" d="M72.8,29c-0.5,0.5-1,1.2-0.6,2c-0.7,0.1-0.6-0.8-1.3-0.7l-1.3,1.3c0.4-0.8-0.5-2,0.6-2.1
		c0.6-0.4,0.2-1.3,0.7-1.9C71.5,28.3,71.6,29.5,72.8,29L72.8,29z"/>
	<path class="st1" d="M89,32.6c0.4-0.2,0.7-0.7,1.2-0.5c0,0.8-2.5,0.3-1.3,1.6l0.6,0.4c-0.5,0.3-1-0.6-1.6-0.5
		c-0.5,0.5-0.7,1.2-1.3,1.6c0.2-0.7,1-1.2,0.5-2l-0.7-0.4c0.7-0.5,0.7-1.6,1.4-2.3C88.3,31.2,88.2,32.1,89,32.6L89,32.6z"/>
	<path class="st1" d="M82.6,33.2c-0.4,0.3-0.4,1.2-0.1,1.9c-1.7-1.6-1.3,0.5-2.2,0.8c0.7-0.7,0.5-1.5,0.5-2.4L80,33
		c0.7-0.1,0.3-1,0.8-1.3C81.6,32,81.8,33.3,82.6,33.2L82.6,33.2z"/>
	<path class="st1" d="M75.9,33.1h1c-0.4,0.1-1.2,0.7-0.7,1.3c0.3,0.6,0.3,1.2,0.3,1.9c0-0.5-0.6-0.7-0.8-1.1c-0.4-0.1-0.8,0-1,0.3
		c0.1,0.4-0.4,0.7-0.7,0.8c-0.5-0.3,0.5-0.9,0-1.5L72.5,34c0.4-0.9,2.3-0.2,1.9-1.9C75.2,32,75,33.2,75.9,33.1L75.9,33.1z"/>
	<path class="st2" d="M29.9,72.7c1.8-0.7,3.2-2.9,5.1-2.4l0.2,0.6l-4.2,3c0.6,1.6,2.5,2.6,3.4,3.9c-2,0-3.1-1.8-4.4-3l-3.8,4
		c-0.4-0.4-1.3,0-1.5-0.6c1.2-1.6,2.7-3,4.1-4.5c-1-1.4-1.9-2.8-2.3-4.4C28.9,68.6,28.4,71.7,29.9,72.7L29.9,72.7z"/>
	<path class="st3" d="M120.7,57.6c0.1,0.9-1.4,0.4-1.9,1.1c-1.3,0.6-2.4,1.9-3.3,2.7c2.6-0.2,5.7-0.7,8.5-0.4
		c-2.2,1.4-5.4,0.7-8,1.5c-0.7,0.1-1.7,0.2-1.9,1c-0.3,0.9,0.4,1.3,0.9,1.9c3.5,0.4,6.6-0.8,9.8-1.3c0.2,0.1,0.1,0.4,0.1,0.6
		c-3.7,0.6-8,3.2-11.6,0.4c-1-0.6-0.1-2.2-1.6-2.3c-0.1-0.5,0.6-0.5,1-0.7c1.7-2.5,4.2-4,6.9-5C120,57.1,120.3,57.4,120.7,57.6
		L120.7,57.6z"/>
	<path class="st2" d="M40,72.6c-0.7,0.1-1.2,1.4-1.4,2.2c-0.3,0.9,0.4,1.3,0.9,1.9c3.5,0.4,6.6-0.8,9.8-1.3c0.2,0.1,0.1,0.4,0.1,0.6
		c-3.7,0.6-8,3.2-11.6,0.4c-1-0.6,0.8-2.9-0.6-3c1.5-1.1-0.4,0.2,0,0c1.7-2.5,4.2-4,6.9-5c0.5,0,0.8,0.2,1.1,0.4
		c0.1,0.9-1.4,0.4-1.9,1.1C42,70.5,40.9,71.8,40,72.6L40,72.6z"/>
	<path class="st2" d="M107.5,58.9c0.3,1-0.6,0.7-1,1.3c1.6,0.2,3.3-0.9,4.9-0.6c-2.2,2-6.8,0.3-7.7,4.2c-0.1,1.1-0.8,2.1-0.3,3.2
		c1.3,1.7,3.3,0.1,4.9,0.2l0.8-0.3c0,0.2,0.1,0.3,0.2,0.4c-0.7,1.1-2.8,1.3-4.4,1.3c-1.1-0.4-2.2-0.6-2.9-1.8
		c-0.4-1.4,0-2.9,0.7-4.1c-1.4-0.8-2.4,1.3-3.5-0.3c1.2-1.2,3-0.5,4.3-1.1C104.7,60.2,105.9,58.3,107.5,58.9L107.5,58.9z"/>
	<path class="st2" d="M98.4,61.1c-1.2,2.5-2.6,4.9-3.5,7.5c-1.5-1-4.2-1.1-4.7-3.6C89,66.4,88,68.4,88,70.2c-1.8,0.2-1.2-2.1-1-3.1
		c0.5-1.9,2.2-3.2,2.4-5.1c2.2-0.8,1.1,2.3,2.1,3.3c0.5,0.5,0.2,1.4,1.1,1.6c2.4,0.2,2-3.1,3.2-4.6c1.2-0.7,0.5-3.7,2.6-2.5
		L98.4,61.1L98.4,61.1z"/>
	<path class="st2" d="M85,63.9l0,0.4c-2.7-0.7-5,0.6-7,2.1c1.8-0.1,4-0.2,6-0.3c-2.1,1.2-5.5,0.8-8,2.1c-0.1,0.7-0.1,1.5,0.7,1.7
		c2.8,0.4,5.4-0.5,7.7-0.8c-2.6,2-6.3,2.2-9.4,0.7c-0.8-0.3-0.2-1.2-0.9-1.5c-1.3-0.1-2.9,0.9-3.9-0.4c5.5,0.5,8.7-6,14.3-4.6
		L85,63.9L85,63.9z"/>
	<path class="st2" d="M67.9,64.6c-1.5,2-2.9,4.1-2.8,6.8c1.8,1.6,3.6-0.2,5.5-0.3l0.5,0.2c-1.8,1.7-4.5,2-6.8,0.8
		c-1.7-2.9,0.3-5.9,2-8.2C67,64.1,67.8,63.9,67.9,64.6L67.9,64.6z"/>
	<path class="st2" d="M58.4,67.4l0,0.4c-2.3-0.2-4.3,1.1-5.8,2.9c2.9-0.3,6.3-1.2,9.4-0.9c-1.7,0.9-4.3,1.1-6.3,1.4
		c-1.2,0.8-3.4,0-3.8,1.7c0,0.8,0.6,1.4,1.3,1.7c2.4,0.1,4.7-0.2,6.8-1c-0.7,1.6-3.3,1.4-5,2.1c-1.8-0.4-4-0.8-4.6-2.8
		c0-0.9-1-0.4-1.3-1.2c2-0.4,2.3-3.3,4.5-3.9C55.2,67.5,56.9,65.9,58.4,67.4L58.4,67.4z"/>
	<path class="st2" d="M18,71.8l0,0.4c-2.5,0.8-4.7,2.2-6.8,4.4c3.1-0.3,6.6-1,10-1.1l0,0.5c-3.6,0.6-7.5,1-10.8,2
		c-0.5,0.6-0.9,1.5-0.5,2.2c3.9,1.1,7.6-1.5,11.3-1.8c-0.2,1.2-1.6,0.7-2.3,1.4c-3.4,0.6-7.1,3-10.5,0.3c-0.3-0.3-0.1-0.9-0.1-1.3
		c-1.7-0.6-3.5,1.6-5.1,0.2c2.1-1.5,5.8-0.3,6.9-3.5c2.1-1.8,4.4-3.1,6.7-4.2C17.3,71.2,17.6,71.6,18,71.8L18,71.8z"/>
	<polygon class="st4" points="66,51.2 69,51.2 69.9,55.1 69.9,55.1 70.9,51.2 73.8,51.2 73.8,57.8 71.9,57.8 71.9,53.6 71.9,53.6 
		70.7,57.8 69.2,57.8 68,53.6 68,53.6 68,57.8 66,57.8 66,51.2 	"/>
	<path class="st4" d="M79.6,56.8c0,0.4,0,0.8,0.2,1.1h-1.9c0-0.1-0.1-0.3-0.1-0.5h0c-0.4,0.4-1,0.6-1.6,0.6c-0.9,0-1.7-0.4-1.7-1.5
		c0-1.5,1.8-1.5,2.7-1.7c0.3,0,0.5-0.1,0.5-0.4c0-0.3-0.3-0.4-0.6-0.4c-0.6,0-0.7,0.3-0.7,0.5h-1.7c0.1-1.4,1.3-1.6,2.5-1.6
		c2.3,0,2.3,1,2.3,1.9V56.8L79.6,56.8z M77.8,55.7c-0.2,0.1-0.5,0.2-0.7,0.2c-0.4,0.1-0.6,0.2-0.6,0.5c0,0.2,0.2,0.4,0.6,0.4
		c0.4,0,0.7-0.3,0.8-0.8V55.7L77.8,55.7z"/>
	<path class="st4" d="M85.6,57.8h-1.8v-0.5h0c-0.2,0.3-0.5,0.7-1.4,0.7c-1.4,0-2-1.4-2-2.6c0-1.1,0.4-2.5,2.1-2.5
		c0.6,0,1,0.2,1.3,0.7h0v-2.4h1.9V57.8L85.6,57.8z M83,54.2c-0.7,0-0.8,0.6-0.8,1.2c0,0.6,0.1,1.2,0.8,1.2c0.7,0,0.8-0.6,0.8-1.2
		C83.9,54.8,83.7,54.2,83,54.2L83,54.2z"/>
	<path class="st4" d="M86.7,53h1.8v0.8h0c0.3-0.6,0.7-0.9,1.4-0.9c0.2,0,0.4,0,0.5,0.1v1.6c-0.2-0.1-0.4-0.1-0.7-0.1
		c-0.7,0-1.1,0.4-1.1,1.5v1.9h-1.9V53L86.7,53z"/>
	<path class="st4" d="M90.9,53h1.9v4.9h-1.9V53L90.9,53z M92.7,52.5h-1.9v-1.3h1.9V52.5L92.7,52.5z"/>
	<path class="st4" d="M98.8,57.8H97v-0.5h0c-0.2,0.3-0.5,0.7-1.4,0.7c-1.4,0-2-1.4-2-2.6c0-1.1,0.4-2.5,2.1-2.5c0.6,0,1,0.2,1.3,0.7
		h0v-2.4h1.9V57.8L98.8,57.8z M96.2,54.2c-0.7,0-0.8,0.6-0.8,1.2c0,0.6,0.1,1.2,0.8,1.2S97,56,97,55.4C97,54.8,96.9,54.2,96.2,54.2
		L96.2,54.2z"/>
	<path class="st4" d="M121.9,71.4c-1.2,0.3-2.1-0.5-3.3,0.5c-1-0.6-1.6,0.3-2.7,0c-0.6,0.6-1.5,0.1-2,0.9l0.1-0.1l-0.3-0.3
		c-0.1,0.8-0.3-0.3-0.6,0.1l-0.2-0.1c-0.4,0-0.5,0.5-0.5,0.8c-0.1,0.3-1,0-1.4-0.3c-0.4,0.1-1.3,0.7-1.9,0.4l-0.3-0.3
		c-0.8,0.6-0.7,1.5-1.9,1.1c-1.4-0.4-3,0.4-4.7,0.3c0.1-0.1,0.2-0.1,0.2-0.3l-0.2-0.1c-0.3,0.5-1.2,0.8-2,0.4
		c-1.1,0.8-2.7,0.4-3.9,0.9l-0.3-0.3l-0.3,0.5l-0.1-0.8l-0.8,0.8c0-0.3-0.3-0.5-0.5-0.5c-0.8-0.3-1.2,0.4-1.1,0.9
		c-0.1-0.3-0.3-0.5-0.5-0.8l-0.8,0.9c-0.2-0.1-0.3-0.4-0.5-0.3c-0.1,0.7-0.9-0.6-1,0.4c-0.1-0.3-0.8-0.4-1.1,0.1
		c0-0.1,0.1-0.2,0.2-0.3c-0.6-0.3-1.2-0.2-1.8,0.2l0.2,0.5l-0.5,0c-0.1-0.1,0.1-0.3,0.1-0.3l-0.1-0.1l-0.5,0.5l0-0.1
		c-0.2,0.3-1-0.5-0.9,0.5c-0.7,0.1-0.5-0.3-1.4-0.2c-0.6,0.9-3,1-4.4,1.1c-1,0.1-2.1-0.4-3.1,0.3c-0.4-0.3-1,0-1.1,0.4
		c0-0.2,0.1-0.5-0.1-0.6c-0.5-0.2-0.7,0.5-0.8,0.6c0.1-0.1,0.2-0.1,0.1-0.3c-0.1-0.1-0.1-0.2-0.3-0.1c-0.3,0.1-0.1,0.5-0.2,0.6
		c-0.6-1.2-2,0.2-2.8-0.5l-0.3,0.3c-0.2-0.8-1,0.3-1.1,0.2l0.5,0.5l-0.5,0c0-0.2,0.1-0.4-0.1-0.5c-0.8,0,0.3,0.5-0.3,0.8l-0.5-0.3
		c-0.7,0.5-1.1,0.9-1.9,0.8l0,0.1c-0.1,0.3-0.4-0.4-0.6,0.2c-0.4,0.2-0.1-0.5-0.2-1l0.2,0.2c0.2-0.1,0.1-0.3,0.1-0.5
		c0.3,0,0.5,0.4,0.7,0c-0.6-0.8-1.1,0-1.8,0.2l0,0.8c-0.2-0.1-0.3,0.2-0.5,0.3l-0.3-0.3c-0.2,0.1-0.1,0.3-0.1,0.5
		c-0.5,0.6-0.4-0.7-0.8-0.1l0,0.3c-0.4,0.1-0.9,0-1-0.5l-0.3,0.6c-0.3-0.1-0.5-0.2-0.8-0.2c-0.5,0.2-2.3,0.2-3,0.6l-0.3,0l0.2-0.1
		c-0.6-0.7-1.7,0.2-2.1,0.1l0.2,0.1l-0.5-0.8c0,0.6-1,0.2-0.7,1c-0.2,0-0.5-0.1-0.7,0.1l0,0.3l-0.1-0.9c-0.5,0.2-0.7-0.1-1.1,0.3
		l0,0.5l-0.5-0.5c-0.3,0.4-0.1,1.2,0,1.3c-0.7,0.1-0.6,0.4-1.1-0.2l-0.3,0.6C52,82.7,52,82,51.1,82.1c-0.1,0.5-0.5,0.7-0.9,0.6
		l0-0.6l0.1,0L50.2,81c-0.5-0.1-0.8,0.8-0.7,1.2c0.3,0.2,0.3,0.5,0.3,0.8c-0.8,0.3-0.8-0.4-1.1-0.8L48.5,83
		c-0.1-0.1-0.1-0.2-0.3-0.1c-0.4,0.2,0.1,0.5,0.2,0.6c-0.5-0.2-0.5-0.8-0.6-1.2c-0.4,0.4-0.3,0.9-0.3,1.4c-0.2-0.3-0.5-0.4-0.8-0.2
		c0.1-0.1-0.1-0.2-0.1-0.3L46,83.7c0.4-0.3-0.1-0.7-0.2-1l-0.6,0.6c0.2,0.1,0.1,0.3,0.1,0.5c-1.2-0.1-1.8-0.4-2.8,0.2l-0.5,0
		c0-0.7-0.5,0.2-0.5-0.3c0.1-0.1,0.2-0.2,0.1-0.3l-0.1-0.1l-0.5,0.5l-0.6-0.5c-0.5,0.7-0.8,0.6-1.6,0.8c-0.1-0.3,0.2-1.3-0.3-1.4
		c0.4-0.1,1.2-0.6,1.4,0.1l0.1,0l0-0.5c-0.1,0.5,0.6,0.5,1.1,0.5c0.1-0.7,0.5-0.1,0.9-0.5c-0.3,0.4-0.3,0.6,0,1c0.3-0.3,0-0.8,0.5-1
		c-0.1,0.3,0.2,0.5,0.3,0.7l0.3,0l0.1-1.2l0.2,0.8c0.3-0.5,0.6-0.9,0.5-1.6c1.3-0.5,3.6-1,4.7-0.8c-0.1,0.1-0.2,0.1-0.1,0.3
		c0.1,0.2,0.3,0.2,0.5,0.2c0.3-0.1,0.1-0.5,0.1-0.7c0.8-0.4,1.5,0.9,1.8-0.3l0,0.3c0.2,0,0.9,0.1,0.9-0.5c1.1,0.3-1.1,0.8,0.3,1.6
		c0.3-0.3-0.1-1.2,0.8-0.9l0.1,0.1l0.3-0.3c-0.5-0.1-0.1-0.4-0.3-0.6c-0.2,0.2,0.7-0.2,0.5,0.3c0.5,0.2,0.6-0.2,0.7-0.6
		c0.7-0.2,0.6,1.1,1.4,0.8c-0.2-0.4-0.5-0.7-0.3-1.1c0.2,0.1,0.3-0.2,0.5-0.3c-0.3,0.3,0,0.7-0.3,1c0.1,0.3,0.5,0.1,0.6,0.1
		c0.1-0.1,0.2-0.1,0.1-0.3l0.3,0.2c-0.1,0.1-0.2,0.1-0.1,0.3c0.1,0.1,0.1,0.2,0.3,0.2c0.3-0.2,0.1-0.5,0.2-0.8
		c-0.1,0.1,0.1,0.2,0.1,0.3c0.5-0.2,0.3-0.7,0.3-1.1c0.6,0.4,0.1,1.2,1.1,1.1c0.2-1,1.8-0.7,1.4-1.7c0,0.2,0,0.4,0.2,0.5
		c0.5-0.8,1.5-0.3,2.5-0.4c-0.1,0.2-0.4,0.3-0.3,0.5l0.2,0.2l1.1-0.8c-0.3,0.5,0.4,1,0.6,0.8l0.2-0.8c-0.1-0.4,0,0.3,0.3,0.1
		c-0.3-0.9,0.5-0.1,1-0.6l0.3,0.5l0.5-0.5l0,0.1c0.3,0.2,1.1-0.9,1.2,0.1c1.6-0.9,2.5-0.9,4.4-0.8l1-0.3l-0.2-0.5l0.5,0.7
		c0-0.8,0.8-0.6,1.3-0.9c0.6,0.7,1-0.3,1-0.2c-0.2,0.2-0.2,0.4-0.3,0.6l0.3,0.3c0.2-0.5,0.6-0.9,1-1.3l0.1,0.2
		c0.2-0.1,0.2-0.3,0.2-0.5l0.3,1.2c0.7-0.5-0.1-1.6,1-1.4l-0.3,0.5c0.3,0.2,0.5,0.4,0.9,0.3l0-0.9c0.7,0,1.2,0.1,1.9-0.2l0.3-0.3
		l0,0.3c0.5-0.1,2.2-0.5,2.7-0.6c0.4,0.8,0.5-0.1,1.2,0c2.1,0.3,3.7-0.6,5.1-0.2c0.3-0.5,1.4,0,1.4-0.6c0.7,0.2,1.7,0.2,2,0.1
		c0.2-0.1,0.1-0.3,0.1-0.5l1.6,0.1l0-0.5c0.5-0.2,1.3,0.2,1.6-0.6c0,0.1,0.1,0.4-0.1,0.5l0.3,0.3l0.5-0.6l0,0.3
		c0.2,0,1.2,0.1,0.9-0.5l0.2-0.2l0.3,1l0.3-1.1c0.5,0.3,0.9,0,1.3,0.5c0.5-0.3-0.3-0.8,0.6-0.6l-0.1,0.2c0.7,0.8,1-0.8,1.9-0.2
		c1.6-0.3,3-0.6,4.4-0.2l0.5-0.5l0,0.2c1-0.4,2.2,0,3.8-0.3c0.3-0.5,1,0.5,1.4-0.4l0.5,0.5l0.7-0.6l0,0.5c2.6-0.4,5.4-1.1,8.1-1.5
		l0,0.1c0.9,0.1,2.8-1.9,3.5-0.3C124.3,70,123.8,71.2,121.9,71.4L121.9,71.4z"/>
	<polygon class="st4" points="99,72 99.6,71.9 99.1,72.2 99,72 	"/>
	<polygon class="st4" points="89.9,75.6 90.3,75.1 90.3,75.4 89.9,75.6 	"/>
	<path class="st4" d="M82.5,76.1l1.1,0C83.2,76.2,82.9,76.4,82.5,76.1L82.5,76.1z"/>
	<path class="st4" d="M82.1,76.2c-0.2-0.1-0.3,0.2-0.5,0.3l0.5-0.9L82.1,76.2L82.1,76.2z"/>
	<polygon class="st4" points="79.6,75.4 79.2,74.9 79.6,75.4 	"/>
	<polygon class="st4" points="68.7,78.9 69.8,78.8 69.4,79.1 68.7,78.9 	"/>
	<polygon class="st4" points="65.9,79.4 66.1,79.1 66,78.9 66.1,78.9 66.1,79.7 65.9,79.4 	"/>
	<path class="st4" d="M61.2,78.7l0,0.3c-0.2-0.2,0.1-0.6-0.3-0.8l-0.2,0l0.8,0.3C61.3,78.5,61.2,78.7,61.2,78.7L61.2,78.7z"/>
	<polygon class="st4" points="60.2,78.4 60.4,78.7 60.2,79.2 60.2,78.4 	"/>
	<path class="st4" d="M53.6,81.2c-0.1,0.9-0.9,0.5-1.6,0.3c0.6,0.6,1.3-1.1,1.8-0.1L53.6,81.2L53.6,81.2z"/>
	<path class="st4" d="M48.8,82.1c-0.3-0.5-0.7-1.2-0.4-1.8c-0.1,0.3,0.2,0.9,0.6,1l0.7-0.5L48.8,82.1L48.8,82.1z"/>
	<path class="st4" d="M46.6,81c-0.8,0.5,0.3,1,0.2,1.6c-0.3,0.1-0.5-0.7-0.8-0.1l0,0.3l-0.8-0.3c0.2-0.8,0.9,0.3,1.2-0.5
		c-0.1-0.2-0.3-0.1-0.5-0.1l0-0.8c-0.1,0.1-0.2,0.1-0.2,0.3c0.6,0.3,0.8-0.6,1.4-0.3l-0.1,0.1c0.1,0.1,0.1,0.2,0.3,0.2
		c0.1-0.6,0.4-0.1,0.7,0l0.1,0.6C47.7,81.9,47,81.3,46.6,81L46.6,81z"/>
	<polygon class="st4" points="45.3,81.6 45,81.9 45.3,81.6 	"/>
	<path class="st4" d="M44.8,81.3c-0.4-0.1,0.5,0,0.5-0.3l0,0.3L44.8,81.3L44.8,81.3z"/>
	<path class="st4" d="M43.8,83c0.2-0.2,0.8-0.8,0.8-0.8C44.6,82.7,43.8,82.7,43.8,83L43.8,83z"/>
	<polygon class="st4" points="42.7,81.1 43,81.3 43,81.9 42.7,81.1 	"/>
	<polygon class="st4" points="42.2,81 42.1,81.9 42.2,81 	"/>
	<path class="st4" d="M38.9,84.9c-0.8,0,0.5,0.1,0.1-0.5l0,0.6L38.9,84.9L38.9,84.9z"/>
	<polygon class="st4" points="38.5,85.5 39.1,85.3 38.9,85.5 38.5,85.5 	"/>
	<path class="st4" d="M38.5,84.5l-0.3,0l0.1-0.5c-0.7-0.1-0.5-0.5-0.9-1.1c-0.2,1-1,0.3-1.4,0.4c0.1,0.1,0.2,0.2,0.2,0.3L36,83.9
		l-0.8-0.8l-0.3,0.8l0-0.3c-0.6-0.1-1-0.1-1.6,0c0.2,0.1-0.8-1.4,0.5-0.5l0.3-0.3c0.8,0.4,1.4-0.5,2.5-0.4l0,0.1
		c0.4-0.4,0.8,0.3,1.4,0.3L37.5,83c0.1,0.3,0.4,0.6,0.6,0.8l0.3-0.8C38.7,83.4,38,84,38.5,84.5L38.5,84.5z"/>
	<path class="st4" d="M37.4,85.8c-0.3-0.4-0.8-0.5-0.6-1.2l0.5,1l0.3-0.2C37.3,85.4,37.4,85.6,37.4,85.8L37.4,85.8z"/>
	<path class="st4" d="M35.4,85.7c-0.2-0.1-0.2-0.3-0.2-0.5l1.2,0.3C36.1,85.9,35.7,85.7,35.4,85.7L35.4,85.7z"/>
	<path class="st4" d="M34.4,86.3l-0.3-0.3l0.7-0.5C34.8,85.8,34.6,86.1,34.4,86.3L34.4,86.3z"/>
	<path class="st4" d="M30.7,86.4c0.3-0.8,2-0.3,3.1-0.4l-0.2,0.5L30.7,86.4L30.7,86.4z"/>
	<path class="st4" d="M32.2,83.4c-0.3,0-0.7,0.1-0.8-0.1l0.9-0.5C32.1,82.9,32.2,83.2,32.2,83.4L32.2,83.4z"/>
	<path class="st4" d="M31.1,84.7c-0.5-0.2-0.1-0.6,0-1L31.1,84.7L31.1,84.7z"/>
	<path class="st4" d="M30.3,85.9l0.1-0.2c-0.3,0.5-0.3,0.5-0.8,0.6l-0.8-0.8l0.5-0.6l0.5,0.5l0.3-0.8l0.3,0.1
		C30.7,85.7,29.1,85.3,30.3,85.9L30.3,85.9z"/>
	<path class="st4" d="M29.1,86.7c-0.2,0.3-0.5-0.1-0.6-0.2l0.7-0.1L29.1,86.7L29.1,86.7z"/>
	<polygon class="st4" points="28,84.5 28.9,84.7 28.3,85.1 28,84.5 	"/>
	<path class="st4" d="M28.1,86c-0.1-0.2-0.4-0.3-0.3-0.6C28.2,85.4,28.1,85.8,28.1,86L28.1,86z"/>
	<path class="st4" d="M27.7,86.7l-0.5,0.5c-0.6-0.5,0.3-0.5,0.3-0.9c0.4,0.1,0.5,0.3,0.5,0.8L27.7,86.7L27.7,86.7z"/>
	<path class="st4" d="M26.6,86.2l0.2,0.1L26.6,86.2c0,0.4-0.5,0.8-0.8,0.9c0.1-0.3-0.1-0.7-0.5-0.9l-0.5,0.6
		c0.3-0.2-0.3-0.5-0.3-0.8l-0.3,0c0.5-0.7,1.2,0,1.6,0.2l0.3,0.3c0.3-0.2,0.1-0.6,0.1-0.9l0.8,0.3C26.9,86.2,26.6,85.6,26.6,86.2
		L26.6,86.2z"/>
	<path class="st4" d="M23.1,86.5c0.3,0.1,0.5,0.5,0.8,0.3c-0.5,0.6-1.6,0.2-2.3,0l0.2-0.5c0.3,0.3,0.8-0.3,0.8,0.3
		c0.7,0.5,0.7-1.2,1.4-0.6L23.1,86.5L23.1,86.5z"/>
	<path class="st4" d="M19.7,87l-0.2-0.5l0.7-0.3C20.7,86.6,19.9,86.8,19.7,87L19.7,87z"/>
</g>
</svg>
